<svg xmlns="http://www.w3.org/2000/svg" width="267" height="160" fill="none">
  <path fill="#fff" d="M108.47 74.17c.12 0 .25.02.37.08.13.04.25.12.36.23l2.1 2.21a8.77 8.77 0 0 1-3.46 2.73c-1.38.6-3.02.91-4.9.91-1.74 0-3.3-.3-4.68-.88a10.34 10.34 0 0 1-3.5-2.44 10.94 10.94 0 0 1-2.2-3.7 13.73 13.73 0 0 1-.76-4.66 13 13 0 0 1 .83-4.7 10.52 10.52 0 0 1 5.94-6.12c1.4-.56 2.95-.85 4.63-.85a11.83 11.83 0 0 1 6.36 1.82c.56.38 1.05.78 1.48 1.22l-1.79 2.4a2.5 2.5 0 0 1-.4.41 1.1 1.1 0 0 1-.66.17c-.2 0-.37-.04-.54-.12a7.27 7.27 0 0 1-.53-.3l-.63-.4a5.85 5.85 0 0 0-1.88-.7c-.4-.08-.89-.12-1.44-.12a5.3 5.3 0 0 0-4.3 1.91 6.64 6.64 0 0 0-1.22 2.29c-.28.9-.43 1.93-.43 3.09 0 1.17.16 2.2.47 3.12.33.9.76 1.68 1.3 2.3a5.64 5.64 0 0 0 4.29 1.9 6.97 6.97 0 0 0 2.43-.3 5.1 5.1 0 0 0 1.9-1.14c.12-.1.26-.19.4-.25a1 1 0 0 1 .46-.11Zm19.79-2.89h-5.8v6.24h-3.95v-6.24h-5.77V67.8h5.77v-6.2h3.95v6.2h5.8v3.48Zm18.2 0h-5.8v6.24h-3.96v-6.24h-5.77V67.8h5.77v-6.2h3.96v6.2h5.8v3.48Zm18.24-3.31c.72 0 1.33-.09 1.83-.26a3.4 3.4 0 0 0 1.25-.77c.33-.33.56-.7.71-1.13.15-.44.22-.91.22-1.41 0-1-.33-1.79-.99-2.35-.65-.57-1.66-.85-3.03-.85h-2.13v6.77h2.13Zm11.25 12.1h-4.8c-.88 0-1.52-.33-1.9-1l-3.8-6.63a1.76 1.76 0 0 0-.6-.6 1.8 1.8 0 0 0-.94-.21h-1.35v8.45h-5.3V57.23h7.44c1.65 0 3.05.17 4.21.52 1.17.33 2.13.8 2.86 1.41.74.6 1.28 1.32 1.61 2.15.34.83.5 1.72.5 2.7a6.63 6.63 0 0 1-4.58 6.5 4.63 4.63 0 0 1 1.8 1.62l4.85 7.95Zm15.33-16.25v16.26h-3.01c-.6 0-1-.27-1.2-.82l-.28-.94a6.5 6.5 0 0 1-2.05 1.46 6.23 6.23 0 0 1-2.68.55 4.95 4.95 0 0 1-4.1-1.76 5.62 5.62 0 0 1-1.06-1.96 8.09 8.09 0 0 1-.36-2.47V63.82h4.86v10.32c0 .8.18 1.42.55 1.86.37.44.9.66 1.62.66.53 0 1.03-.1 1.49-.33a6.4 6.4 0 0 0 1.36-.92V63.8h4.86Zm13.64 3.56c-.13.2-.26.34-.41.42a1 1 0 0 1-.53.13c-.23 0-.47-.05-.7-.14-.22-.1-.47-.22-.75-.33a6.86 6.86 0 0 0-.9-.32c-.33-.1-.7-.15-1.14-.15a2.4 2.4 0 0 0-1.42.36 1.1 1.1 0 0 0-.49.97c0 .3.1.55.31.75a3 3 0 0 0 .87.53c.35.15.75.3 1.2.43.45.13.91.29 1.38.45.47.17.94.37 1.38.6.45.22.86.5 1.21.83a3.9 3.9 0 0 1 1.18 2.88c0 .81-.15 1.55-.44 2.23a4.7 4.7 0 0 1-1.32 1.76c-.57.49-1.29.87-2.15 1.14a9.6 9.6 0 0 1-4.6.25 9.35 9.35 0 0 1-3.04-1.05 6.52 6.52 0 0 1-1.12-.8l1.13-1.78c.12-.21.28-.38.47-.5.2-.12.45-.18.75-.18.28 0 .53.06.75.19l.74.4a4.05 4.05 0 0 0 2.24.6c.38 0 .7-.03.96-.1.26-.1.47-.2.63-.34a1.28 1.28 0 0 0 .45-.97c0-.32-.1-.59-.33-.8-.22-.2-.5-.39-.86-.53-.36-.16-.76-.3-1.22-.42l-1.38-.46c-.48-.17-.94-.37-1.4-.6a4.25 4.25 0 0 1-2.07-2.23 4.9 4.9 0 0 1-.33-1.89 4.64 4.64 0 0 1 1.6-3.6 5.8 5.8 0 0 1 2-1.12 8.65 8.65 0 0 1 2.83-.42 8.96 8.96 0 0 1 3.25.6 7.07 7.07 0 0 1 2.36 1.5l-1.1 1.7Zm13.96 0c-.12.2-.26.34-.4.42a1 1 0 0 1-.54.13c-.23 0-.46-.05-.69-.14l-.75-.33a6.8 6.8 0 0 0-.9-.32c-.33-.1-.71-.15-1.14-.15-.62 0-1.1.12-1.43.36-.32.23-.48.55-.48.97 0 .3.1.55.31.75.22.2.5.38.86.53.36.15.76.3 1.21.43.45.13.91.29 1.38.45a12 12 0 0 1 1.38.6c.45.22.85.5 1.2.83a3.9 3.9 0 0 1 1.18 2.88c0 .81-.14 1.55-.44 2.23a4.7 4.7 0 0 1-1.31 1.76 6.2 6.2 0 0 1-2.15 1.14 9.6 9.6 0 0 1-4.6.25 9.3 9.3 0 0 1-3.04-1.05 6.49 6.49 0 0 1-1.13-.8l1.13-1.78c.13-.21.28-.38.47-.5.2-.12.45-.18.76-.18.28 0 .53.06.75.19l.74.4a4.05 4.05 0 0 0 2.24.6c.37 0 .7-.03.95-.1.27-.1.47-.2.63-.34a1.28 1.28 0 0 0 .46-.97c0-.32-.11-.59-.33-.8a2.8 2.8 0 0 0-.87-.53c-.35-.16-.76-.3-1.22-.42l-1.38-.46c-.47-.17-.93-.37-1.4-.6a4.27 4.27 0 0 1-2.07-2.23 4.89 4.89 0 0 1-.32-1.89 4.64 4.64 0 0 1 1.6-3.6 5.8 5.8 0 0 1 2-1.12 8.6 8.6 0 0 1 2.83-.42 8.95 8.95 0 0 1 3.24.6 7.07 7.07 0 0 1 2.37 1.5l-1.1 1.7Zm8.61-3.56v16.26h-4.87V63.82h4.87Zm.5-4.46c0 .4-.08.76-.24 1.1a2.98 2.98 0 0 1-2.74 1.73 2.82 2.82 0 0 1-2.04-.83 3.13 3.13 0 0 1-.63-.9 2.83 2.83 0 0 1 .63-3.12c.27-.26.58-.46.92-.6a2.98 2.98 0 0 1 3.86 1.52c.16.34.24.7.24 1.1Zm11.27 14.1c-.97.04-1.77.13-2.4.25-.62.13-1.12.29-1.49.47-.36.2-.62.4-.76.65-.14.24-.2.5-.2.78 0 .55.15.95.45 1.18.3.22.74.33 1.33.33a3.85 3.85 0 0 0 3.07-1.4v-2.26Zm-8.75-7.38a9.8 9.8 0 0 1 3.27-1.93 11.4 11.4 0 0 1 3.85-.65c.99 0 1.87.17 2.65.5a5.7 5.7 0 0 1 3.28 3.36c.3.77.44 1.63.44 2.56v10.16h-2.23c-.46 0-.8-.06-1.05-.19-.23-.12-.42-.39-.58-.78l-.34-.9c-.41.35-.8.65-1.18.91a5.58 5.58 0 0 1-2.46 1.07 7.37 7.37 0 0 1-3.53-.14 3.82 3.82 0 0 1-2.52-2.26 5.12 5.12 0 0 1-.35-1.94 4.06 4.06 0 0 1 1.96-3.42c.72-.5 1.7-.92 2.92-1.26 1.22-.33 2.76-.52 4.62-.56v-.7c0-.94-.2-1.63-.6-2.05-.38-.42-.93-.64-1.65-.64a4.43 4.43 0 0 0-2.4.61l-.83.43c-.28.12-.6.18-.98.18a1.4 1.4 0 0 1-.84-.25 2.2 2.2 0 0 1-.57-.6l-.88-1.51Z"/>
  <path fill="#ADADAD" d="M100.95 104.52c.24 0 .43.08.57.22.14.14.2.31.2.53v1.34h-9.99v-.75a1.34 1.34 0 0 1 .39-.93l4.6-4.6c.39-.4.73-.77 1.03-1.12.31-.36.57-.71.78-1.07a4.38 4.38 0 0 0 .67-2.23c0-.4-.06-.74-.19-1.03a1.9 1.9 0 0 0-.49-.74 1.9 1.9 0 0 0-.75-.44c-.28-.1-.6-.15-.95-.15a2.68 2.68 0 0 0-1.7.54 2.39 2.39 0 0 0-.87 1.38c-.1.28-.23.47-.4.57-.15.1-.39.11-.7.06L92 95.9c.1-.7.29-1.31.57-1.84a4.34 4.34 0 0 1 2.56-2.12 5.77 5.77 0 0 1 3.62.03 4.04 4.04 0 0 1 2.37 2.13 4.54 4.54 0 0 1 .1 3.25 6 6 0 0 1-.66 1.34c-.27.42-.6.83-.96 1.24-.36.4-.75.8-1.15 1.2l-3.57 3.66a8.2 8.2 0 0 1 1.73-.27h4.34Zm13.15-5.3c0 1.3-.14 2.41-.42 3.35a6.9 6.9 0 0 1-1.14 2.35 4.6 4.6 0 0 1-3.84 1.84 4.6 4.6 0 0 1-3.84-1.84 7 7 0 0 1-1.12-2.35c-.28-.94-.41-2.06-.41-3.35 0-1.3.13-2.41.4-3.36.28-.95.66-1.73 1.13-2.35a4.6 4.6 0 0 1 1.72-1.38 5.01 5.01 0 0 1 5.95 1.38c.5.62.87 1.4 1.15 2.35.28.95.42 2.07.42 3.36Zm-2.28 0c0-1.1-.09-2-.27-2.73a5.5 5.5 0 0 0-.68-1.75 2.57 2.57 0 0 0-1-.94 2.62 2.62 0 0 0-2.35 0c-.37.19-.7.5-.98.94a5.47 5.47 0 0 0-.7 1.75c-.16.73-.25 1.63-.25 2.73s.09 2 .26 2.74c.17.72.4 1.3.69 1.74.28.44.61.75.98.94a2.65 2.65 0 0 0 2.35 0c.38-.19.7-.5 1-.94a5.5 5.5 0 0 0 .68-1.74c.18-.73.27-1.65.27-2.74Zm12.94 5.3a.74.74 0 0 1 .77.75v1.34h-10v-.75a1.33 1.33 0 0 1 .4-.93l4.6-4.6c.38-.4.73-.77 1.03-1.12.3-.36.57-.71.78-1.07a4.32 4.32 0 0 0 .67-2.23c0-.4-.07-.74-.19-1.03a1.9 1.9 0 0 0-.5-.74 1.9 1.9 0 0 0-.74-.44c-.29-.1-.6-.15-.95-.15a2.68 2.68 0 0 0-1.7.54 2.37 2.37 0 0 0-.87 1.38c-.1.28-.23.47-.4.57-.16.1-.39.11-.7.06l-1.16-.2c.1-.7.3-1.31.58-1.84a4.33 4.33 0 0 1 2.55-2.12 5.77 5.77 0 0 1 3.63.03 4.04 4.04 0 0 1 2.36 2.13 4.61 4.61 0 0 1 .1 3.25 6 6 0 0 1-.65 1.34c-.27.42-.6.83-.96 1.24-.37.4-.75.8-1.15 1.2l-3.57 3.66a8.27 8.27 0 0 1 1.73-.27h4.34Zm3.02-8.62c.1-.7.3-1.31.57-1.84a4.35 4.35 0 0 1 2.56-2.12 5.77 5.77 0 0 1 3.6.02c.54.18 1 .44 1.39.77a3.64 3.64 0 0 1 1.21 2.73c0 .48-.06.9-.18 1.26a2.94 2.94 0 0 1-1.24 1.63c-.3.18-.64.34-1.02.46.92.27 1.6.7 2.07 1.28.45.58.68 1.31.68 2.2a4.17 4.17 0 0 1-1.49 3.3 4.8 4.8 0 0 1-1.59.88c-.6.2-1.24.3-1.91.3-.76 0-1.42-.09-1.97-.27a4.42 4.42 0 0 1-1.44-.78 4.5 4.5 0 0 1-1-1.23 8.4 8.4 0 0 1-.67-1.6l.95-.4c.25-.12.5-.15.72-.1.23.05.4.17.5.38l.37.7c.14.25.31.48.53.7.21.2.48.37.8.52a3 3 0 0 0 1.18.2 2.77 2.77 0 0 0 2.11-.82 2.4 2.4 0 0 0 .7-1.71c0-.37-.04-.7-.13-1.02a1.6 1.6 0 0 0-.52-.8 2.68 2.68 0 0 0-1.09-.51 7.02 7.02 0 0 0-1.83-.2v-1.59a5.9 5.9 0 0 0 1.57-.18 2.7 2.7 0 0 0 1.02-.5c.26-.2.45-.46.56-.75a2.87 2.87 0 0 0 0-1.97 1.92 1.92 0 0 0-.5-.71c-.2-.2-.45-.35-.73-.44a3 3 0 0 0-.96-.14 2.69 2.69 0 0 0-1.7.54 2.5 2.5 0 0 0-.88 1.39c-.09.27-.22.46-.38.56-.16.1-.4.11-.7.06l-1.16-.2Z"/>
  <path fill="url(#a)" fill-rule="evenodd" d="M67.78 66.03a20.22 20.22 0 1 0-.13 28.7l5.65 5.7v-.22l1.08 1.09A29.6 29.6 0 0 1 24 80.23a29.59 29.59 0 0 1 50.53-20.9l-.05-.03-6.7 6.73Zm-1.4 2.06a17.62 17.62 0 1 0-.56 24.8l-6.68-6.75a8.13 8.13 0 1 1 .55-11.31l6.7-6.74Zm-14.24 17h3.07v-3.35h3.08v-3.16H55.2v-3.35h-3.07v3.35h-3.3v3.16h3.3v3.35Zm11.34 0h3.07v-3.35h3.08v-3.16h-3.08v-3.35h-3.07v3.35h-3.3v3.16h3.3v3.35Z" clip-rule="evenodd"/>
  <defs>
    <linearGradient id="a" x1="24.6" x2="66.72" y1="80.23" y2="80.23" gradientUnits="userSpaceOnUse">
      <stop stop-color="#31BD8F"/>
      <stop offset="1" stop-color="#29AC04"/>
    </linearGradient>
  </defs>
</svg>
