<svg xmlns="http://www.w3.org/2000/svg" width="267" height="160" fill="none">
  <path fill="#fff" fill-rule="evenodd" d="M47 89.47V77.6h-8.96v11.88H33v-27.3h5.04v11H47v-11h5.05v27.3H47Zm11.45 0v-27.3h16.9v4.34H63.52v6.74h10.83v4.27H63.52v7.6h12.15v4.35H58.45Z" clip-rule="evenodd"/>
  <path fill="#fff" d="M85.94 62.16H80.9v27.31h5.04v-27.3Z"/>
  <path fill="#fff" fill-rule="evenodd" d="M91.71 71.52v-3.97c0-1.8.5-3.17 1.48-4.13.98-.95 2.4-1.42 4.23-1.42h7.1c1.76 0 3.13.47 4.1 1.42.97.96 1.47 2.33 1.47 4.13v2.78h-4.97v-2.7c0-.92-.5-1.38-1.52-1.38h-5.42c-1 0-1.51.46-1.51 1.37v3.1c0 .47.07.82.21 1.03.13.22.43.36.88.47l8.84 2.3c2.51.7 3.76 2.23 3.76 4.64v4.9c0 1.8-.5 3.18-1.48 4.13-.98.96-2.39 1.43-4.23 1.43h-7.6c-1.8 0-3.18-.47-4.16-1.43-.94-.95-1.43-2.32-1.43-4.12v-2.55h5V84c0 .92.5 1.37 1.51 1.37h5.88c1.02 0 1.52-.45 1.52-1.37v-3.8c0-.74-.38-1.19-1.13-1.37l-9.03-2.4c-2.34-.6-3.5-2.23-3.5-4.9Zm24.27 17.95v-27.3h16.9v4.34h-11.86v6.74h10.84v4.27h-10.84v7.6h12.16v4.35h-17.2Zm36.84 0-9.68-17.63v17.63h-4.72v-27.3h4.63l9.66 17.57V62.16h4.74v27.31h-4.63Z" clip-rule="evenodd"/>
  <path fill="#FF9100" fill-rule="evenodd" d="m166.45 93.31-2.12-.54V70.54h14.9c1.84 0 3.25.5 4.23 1.47.96.97 1.46 2.37 1.46 4.2v3.2c0 2.17-.95 3.6-2.85 4.28 2.3.47 3.44 1.9 3.44 4.34v4.11c0 1.86-.5 3.26-1.47 4.24-.96.95-2.37 1.44-4.22 1.44h-13.35v-4.5h-.02Zm11.96-18.46h-9.05v6.78h9.12c.97 0 1.45-.45 1.45-1.37V76.3c0-.96-.52-1.45-1.52-1.45Zm.6 11.04h-9.65v7.62H179c1 0 1.52-.49 1.52-1.48V87.3c-.02-.94-.5-1.4-1.5-1.4Zm55.41 6.34c0 1.86-.48 3.28-1.46 4.27-.98 1-2.4 1.5-4.23 1.5h-7.1c-1.84 0-3.25-.49-4.23-1.5-.98-.99-1.48-2.41-1.48-4.27v-16.1c0-1.85.5-3.28 1.48-4.27.98-1 2.38-1.48 4.22-1.48h7.11c1.84 0 3.25.49 4.23 1.48.98 1 1.46 2.42 1.46 4.27v2.82h-4.96v-2.7c0-1.02-.51-1.54-1.51-1.54h-5.5c-1 0-1.5.5-1.5 1.53V92.1c0 1 .5 1.53 1.5 1.53h5.5c1 0 1.51-.5 1.51-1.53v-4.15h-3.95V83.9h8.9v8.33ZM210 82.44l-1.09-.41-1.09-.42V70.54h-5.02v11.07l1.94.83.21.13v9.46c0 1.01-.51 1.54-1.51 1.54h-5.92c-1 0-1.51-.5-1.51-1.54V82.6l-2.05-.8V70.54h-2.98v21.7c0 1.85.5 3.27 1.48 4.26.98 1 2.39 1.5 4.2 1.5h7.65c1.84 0 3.23-.49 4.2-1.5.99-.99 1.49-2.41 1.49-4.27v-9.79Z" clip-rule="evenodd"/>
</svg>
