<svg xmlns="http://www.w3.org/2000/svg" width="267" height="160" fill="none">
  <path fill="#0794FE" d="m88 120.21.27-.05-.27-.46v.51Z"/>
  <path fill="#0893FD" d="m88 119.7.27.46.54-.1-.8-1.4v1.04Z"/>
  <path fill="#0993FD" d="m88 118.67.81 1.4.54-.1-1.35-2.33v1.03Z"/>
  <path fill="#0A93FD" d="m88 117.64 1.35 2.33.54-.09-1.89-3.27v1.03Z"/>
  <path fill="#0B92FD" d="m88 116.61 1.9 3.28.53-.1-2.43-4.21v1.03Z"/>
  <path fill="#0C92FD" d="m88 115.58 2.43 4.2.54-.09-2.97-5.14v1.03Z"/>
  <path fill="#0D92FD" d="m88 114.55 2.97 5.15.54-.1-3.5-6.08v1.03Z"/>
  <path fill="#0E91FC" d="m88 113.52 3.51 6.08.54-.1-4.05-7v1.03Z"/>
  <path fill="#0F91FC" d="m88 112.48 4.05 7.02.54-.1-4.59-7.95v1.03Z"/>
  <path fill="#1091FC" d="m88 111.45 4.6 7.95.54-.1-5.14-8.88v1.03Z"/>
  <path fill="#1190FC" d="M91.69 115.84v-.06l-3.69-6.4v1.04l5.14 8.9.53-.1-1.94-3.38h-.04Z"/>
  <path fill="#1290FC" d="m91.69 114.74-3.69-6.4v1.04l3.69 6.39v-1.03Zm.03 1.09 1.95 3.38.54-.1-1.95-3.38-.54.1Z"/>
  <path fill="#1390FB" d="m91.69 113.72-3.69-6.4v1.04l3.69 6.39v-1.03Zm.57 2.02 1.95 3.38.54-.1-1.95-3.38-.54.1Z"/>
  <path fill="#148FFB" d="m92.8 115.64 1.96 3.38.54-.1-1.95-3.37-.54.1Zm-1.11-2.96-3.69-6.4v1.04l3.69 6.39v-1.03Z"/>
  <path fill="#158FFB" d="m93.34 115.55 1.95 3.38.54-.1-1.95-3.37-.54.1Zm-1.65-3.9-3.69-6.4v1.04l3.69 6.39v-1.03Z"/>
  <path fill="#168FFB" d="m93.88 115.45 1.96 3.38.54-.1-1.95-3.38-.55.1Zm-2.19-4.83-3.69-6.4v1.04l3.69 6.39v-1.03Z"/>
  <path fill="#178EFB" d="m91.69 109.59-3.69-6.4v1.04l3.69 6.39v-1.03Zm2.74 5.77 1.95 3.38.54-.1-1.95-3.38-.54.1Z"/>
  <path fill="#188EFA" d="M91.69 108.55 88 102.16v1.03l3.69 6.39v-1.03Zm3.27 6.71 1.95 3.38.55-.1-1.96-3.37-.54.1Z"/>
  <path fill="#198EFA" d="m91.69 107.53-3.69-6.4v1.04l3.69 6.39v-1.03Zm3.81 7.64 1.96 3.38.54-.1-1.95-3.37-.55.1ZM81 89.23l.24.2-.17-.29-.07.09Z"/>
  <path fill="#1A8DFA" d="m96.05 115.07 1.95 3.38.53-.1-1.95-3.38-.53.1Zm-4.36-8.57L88 100.1v1.03l3.69 6.39v-1.03ZM81.07 89.14l.17.28 1.15.97-.96-1.67-.36.42Z"/>
  <path fill="#1B8DFA" d="m81.43 88.72.96 1.67 1.16.96-1.76-3.04-.36.41Zm15.15 26.26 1.95 3.38.55-.1-1.96-3.38-.54.1Zm-4.89-9.52L88 99.07v1.03l3.69 6.39v-1.03Z"/>
  <path fill="#1C8DFA" d="M91.69 104.43 88 98.04v1.03l3.69 6.39v-1.03Zm-9.91-16.12 1.76 3.05 1.15.97-2.55-4.43-.36.41Zm15.34 26.57 1.96 3.38.53-.1-1.94-3.37-.55.1Z"/>
  <path fill="#1D8CFA" d="m97.67 114.8 1.95 3.37.54-.1-1.95-3.37-.54.1ZM82.14 87.9l2.55 4.43 1.16.96-3.36-5.81-.35.42Zm9.55 15.5L88 97v1.03l3.69 6.39v-1.03Z"/>
  <path fill="#1E8CF9" d="m82.5 87.48 3.35 5.8 1.15.98-4.15-7.2-.36.42Zm9.19 14.88L88 95.97V97l3.69 6.4v-1.04Zm6.51 12.33 1.96 3.38.54-.1-1.95-3.38-.54.1Z"/>
  <path fill="#1F8CF9" d="m98.75 114.6 1.95 3.37.54-.09-1.95-3.38-.54.1Zm-7.06-13.26L83.2 86.65l-.36.42 4.16 7.2.99.82v.89l3.69 6.39v-1.03Z"/>
  <path fill="#208BF9" d="m99.29 114.5 1.95 3.38.54-.1-1.95-3.37-.54.1Zm-7.6-14.2-8.12-14.06-.36.41 8.48 14.69v-1.04Z"/>
  <path fill="#218BF9" d="m99.83 114.41 1.95 3.38.54-.1-1.95-3.38-.54.1Zm-8.14-15.14-7.77-13.45-.35.41 8.12 14.07v-1.03Z"/>
  <path fill="#228BF9" d="m100.37 114.31 1.95 3.38.54-.1-1.95-3.38-.54.1Zm-8.68-16.07L84.28 85.4l-.36.42 7.77 13.45v-1.03Z"/>
  <path fill="#238AF8" d="m91.69 97.21-4.62-8-.89-.74.28-.32-1.83-3.16-.35.42 7.4 12.83v-1.03Zm9.21 17 1.96 3.38.54-.09-1.95-3.38-.54.1Z"/>
  <path fill="#248AF8" d="m88.21 90.17-1.15-.96 4.62 8v-1.04l-3.47-6Zm13.24 23.95 1.95 3.38.54-.1-1.95-3.38-.54.1ZM86.81 87.73 85 84.58l-.36.41 1.83 3.16.35-.42Z"/>
  <path fill="#258AF8" d="m87.17 87.32-1.83-3.16-.35.42 1.82 3.15.36-.41Zm4.52 7.83-2.32-4.02-1.15-.96 3.47 6v-1.02ZM102 114.03l1.94 3.38.55-.1-1.96-3.38-.54.1Z"/>
  <path fill="#2689F8" d="m91.69 94.11-1.17-2.02-1.15-.96 2.32 4.02V94.1Zm-4.16-7.21-1.83-3.15-.35.41 1.82 3.16.36-.41Zm15 27.03 1.95 3.38.54-.1-1.95-3.38-.54.1Z"/>
  <path fill="#2789F8" d="m91.69 93.08-.02-.04-1.15-.96 1.17 2.03v-1.03Zm-3.81-6.59-1.82-3.16-.36.42 1.82 3.15.36-.41Zm15.19 27.34 1.95 3.38.54-.09-1.95-3.38-.54.1Z"/>
  <path fill="#2889F7" d="m88.24 86.08-1.83-3.16-.35.41 1.82 3.16.36-.41Zm15.37 27.65 1.95 3.38.55-.1-1.96-3.37-.54.1ZM91.69 93.06l-.02-.01.02.03v-.02Z"/>
  <path fill="#2988F7" d="m104.15 113.64 1.95 3.38.54-.1-1.95-3.38-.54.1ZM88.6 85.66l-1.83-3.16-.36.41 1.83 3.16.35-.41Zm11.29 19.57-.45-.78c.12.3.27.55.45.78Z"/>
  <path fill="#2A88F7" d="m88.95 85.25-1.83-3.17-.35.42 1.82 3.16.36-.41Zm15.75 28.3 1.94 3.38.54-.1-1.95-3.38-.54.1Zm-5.26-9.1.45.77c.3.38.66.68 1.1.88l-1.9-3.3c.03.63.15 1.18.35 1.65Z"/>
  <path fill="#2B88F7" d="m89.3 84.84-1.82-3.17-.36.42 1.83 3.16.36-.41Zm15.93 28.61 1.95 3.38.54-.1-1.95-3.37-.54.1Zm-6.16-11.09c0 .15 0 .3.02.44l1.9 3.3c.23.1.47.18.73.23l-2.65-4.59v.62Z"/>
  <path fill="#2C87F7" d="m89.67 84.42-1.83-3.17-.36.42 1.83 3.16.36-.41Zm9.4 17.33 2.65 4.6c.2.04.42.06.64.08l-3.29-5.7v1.02Zm6.71 11.61 1.95 3.38.54-.1-1.95-3.38-.54.1Z"/>
  <path fill="#2D87F7" d="M90.02 84 88 80.52v.56l-.16.2 1.83 3.16.35-.42Zm9.05 16.71 3.3 5.7a3 3 0 0 0 .6 0l-3.9-6.73v1.03Zm7.24 12.55 1.95 3.38.55-.1-1.96-3.38-.54.1Z"/>
  <path fill="#2E87F6" d="M90.38 83.59 88 79.47v1.04l2.02 3.5.36-.42Zm8.69 16.01v.08l3.9 6.73c.17 0 .36-.03.55-.05l-3.95-6.84-.5.08Zm7.79 13.57 1.95 3.38.54-.1-1.95-3.38-.54.1Z"/>
  <path fill="#2F86F6" d="M90.74 83.18 88 78.44v1.04l2.38 4.11.36-.41Zm16.66 29.89 1.95 3.38.54-.1-1.95-3.37-.55.1Zm-7.83-13.55 3.95 6.84c.1 0 .19-.02.28-.03l.27-.05-3.96-6.86-.54.1Z"/>
  <path fill="#3086F6" d="M91.1 82.77 88 77.4v1.03l2.74 4.74.35-.41Zm9.01 16.66 3.96 6.85.54-.1-3.96-6.85-.54.1Zm7.83 13.54 1.95 3.38.54-.1-1.95-3.37-.54.1Z"/>
  <path fill="#3186F6" d="M102.72 101.94v-.07l-1.53-2.64-.54.1 3.96 6.85.54-.1-1.81-3.13c-.44-.06-.62-.37-.62-1Zm5.75 10.94 1.96 3.38.54-.1-1.96-3.38-.54.1ZM91.45 82.36 88 76.38v1.04l3.1 5.35.35-.41Z"/>
  <path fill="#3285F6" d="M91.69 82.08v-.34L88 75.35v1.03l3.45 5.98.24-.28Zm11.03 18.76-.98-1.7-.54.09 1.52 2.64v-1.03Zm1.16 2.08a1.8 1.8 0 0 1-.54.02l1.81 3.14.54-.09-1.77-3.08h-.04Zm5.13 9.87 1.96 3.38.53-.1-1.94-3.38-.55.1Z"/>
  <path fill="#3385F5" d="M91.69 80.7 88 74.31v1.04l3.69 6.38V80.7Zm17.87 32 1.94 3.37.55-.1-1.95-3.37-.54.1Zm-5.65-9.79 1.78 3.09.54-.1-1.78-3.08-.54.1Zm-1.19-3.1-.45-.77-.54.1.99 1.7v-1.03Z"/>
  <path fill="#3485F5" d="m104.45 102.81 1.78 3.08.55-.09-1.78-3.08-.55.1Zm5.65 9.79 1.95 3.37.54-.1-1.96-3.37-.54.1ZM91.69 79.67 88 73.28v1.03l3.69 6.4v-1.04Zm11.03 19.3-.45.07.45.77v-.84Z"/>
  <path fill="#3584F5" d="m105 102.72 1.78 3.08.53-.1-1.78-3.08-.53.1ZM91.69 78.64 88 72.25v1.04l3.69 6.38v-1.03Zm18.95 33.86 1.95 3.38.54-.1-1.95-3.38-.54.1Z"/>
  <path fill="#3684F5" d="m105.53 102.63 1.78 3.08.54-.1-1.78-3.08-.54.1Zm5.65 9.77 1.95 3.39.54-.1-1.95-3.38-.54.1ZM91.69 77.61 88 71.22v1.03l3.69 6.4V77.6Z"/>
  <path fill="#3784F5" d="m111.72 112.3 1.95 3.39.54-.1-1.95-3.38-.54.1ZM91.69 76.58 88 70.2v1.04l3.69 6.38v-1.03Zm14.38 25.95 1.78 3.08.54-.1-1.78-3.07-.54.1Z"/>
  <path fill="#3883F4" d="m112.26 112.2 1.95 3.4.54-.1-1.95-3.38-.54.09Zm-5.65-9.77 1.78 3.08.54-.09-1.78-3.08-.54.1ZM91.69 75.55 88 69.16v1.03l3.69 6.4v-1.04Z"/>
  <path fill="#3983F4" d="M91.69 74.51 88 68.12v1.04l3.69 6.38v-1.03Zm15.46 27.83 1.78 3.08.1-.02.43-.09-1.77-3.07-.54.1Zm5.65 9.78 1.95 3.38.54-.1-1.95-3.38-.54.1Z"/>
  <path fill="#3A83F4" d="m113.34 112.02 1.95 3.38.54-.1-1.95-3.38-.54.1ZM91.69 73.48 88 67.1v1.03l3.69 6.4v-1.04Zm16.01 28.76 1.76 3.07.52-.14-1.75-3.02-.54.1Z"/>
  <path fill="#3B82F4" d="M108.7 102.08h-.1l-.36.07 1.74 3.02a5 5 0 0 0 .5-.18l-1.7-2.93a.5.5 0 0 1-.08.02ZM91.69 72.45 88 66.06v1.04l3.69 6.38v-1.03Zm22.19 39.48 1.95 3.38.54-.1-1.95-3.38-.54.1Z"/>
  <path fill="#3C82F4" d="m114.42 111.83 1.95 3.38.54-.1-1.95-3.37-.54.09Zm-5.64-9.77 1.7 2.93c.16-.07.31-.13.46-.22l-1.67-2.9c-.15.1-.31.16-.49.19ZM91.69 71.42 88 65.03v1.03l3.69 6.4v-1.04Z"/>
  <path fill="#3D82F4" d="M91.69 70.4 88 64v1.04l3.69 6.38V70.4Zm17.58 31.47 1.67 2.9c.16-.08.3-.16.45-.26l-1.74-3c-.1.15-.23.27-.38.36Zm-10.21-18.7v.51l.27-.05-.27-.46Zm15.9 28.57 1.96 3.38.53-.1-1.95-3.38-.54.1Z"/>
  <path fill="#3E81F3" d="m115.5 111.63 1.95 3.39.55-.1-1.96-3.38-.54.1Zm-5.85-10.12 1.74 3 .42-.3-1.9-3.3c-.04.22-.13.43-.26.6ZM91.69 69.36 88 62.97V64l3.69 6.4v-1.04Zm8.18 14.18-.8-1.4v1.03l.26.47.54-.1Z"/>
  <path fill="#3F81F3" d="M109.91 100.54c.02.12.01.25-.01.37l1.9 3.3.4-.36-2.29-3.95v.64Zm6.13 11.01 1.95 3.38.54-.1-1.95-3.38-.54.1Zm-15.62-28.11-1.36-2.33v1.03l.81 1.4.55-.1Zm-8.73-15.12L88 61.94v1.03l3.69 6.39v-1.04Z"/>
  <path fill="#4081F3" d="m109.9 99.9 2.29 3.95c.13-.13.25-.27.36-.42l-2.64-4.56v1.02Zm-8.95-16.55-1.89-3.28v1.03l1.36 2.34.53-.1ZM91.69 67.3 88 60.9v1.03l3.69 6.4v-1.04Zm24.89 44.15 1.95 3.38.55-.1-1.96-3.38-.54.1Z"/>
  <path fill="#4180F3" d="M91.69 66.26 88 59.88v1.03l3.69 6.39v-1.04Zm25.43 45.1 1.96 3.38.53-.1-1.95-3.38-.54.1Zm-7.22-12.5 2.65 4.57c.11-.15.22-.31.32-.48l-2.96-5.12v1.03Zm-8.4-15.61-2.44-4.21v1.03l1.9 3.27.53-.1Z"/>
  <path fill="#4280F3" d="M102.04 83.16 99.06 78v1.03l2.43 4.21.55-.1Zm7.86 14.67 2.97 5.12c.1-.18.2-.36.28-.55l-3.24-5.6v1.03Zm-18.21-32.6L88 58.85v1.02l3.69 6.4v-1.04Zm25.97 46.02 1.95 3.39.54-.1-1.95-3.38-.54.1Z"/>
  <path fill="#4380F2" d="m109.9 96.8 3.25 5.61c.09-.2.16-.42.22-.64l-3.46-6v1.04Zm8.3 14.37 1.95 3.38.55-.1-1.96-3.38-.54.1Zm-15.62-28.11-3.52-6.08V78l2.98 5.15.53-.1ZM91.69 64.2 88 57.82v1.03l3.69 6.39V64.2Z"/>
  <path fill="#447FF2" d="m118.75 111.07 1.95 3.38.54-.1-1.95-3.38-.54.1Zm-16-28.04v-.7l-3.69-6.38v1.03l3.52 6.09.17-.04ZM91.69 63.17 88 56.8v1.02l3.69 6.4v-1.04Zm18.21 32.6 3.46 5.99c.07-.24.13-.49.17-.75l-3.62-6.27v1.03Z"/>
  <path fill="#457FF2" d="m109.9 94.74 3.63 6.27c.05-.29.07-.6.08-.9l-3.7-6.4v1.03Zm9.38 16.24 1.96 3.38.54-.1-1.95-3.38-.55.1ZM102.75 81.3l-3.69-6.38v1.03l3.69 6.38V81.3ZM91.69 62.14 88.2 56.1l-.2.04v.64l3.69 6.4v-1.04Z"/>
  <path fill="#467FF2" d="M91.69 61.1 88.74 56l-.54.1 3.49 6.04V61.1Zm18.21 32.6 3.7 6.4v-1.02l-3.7-6.4v1.03Zm9.93 17.17 1.95 3.38.54-.09-1.95-3.38-.54.1Zm-17.08-30.61-3.69-6.38v1.03l3.69 6.39v-1.04Z"/>
  <path fill="#477EF2" d="m102.75 79.23-3.69-6.38v1.03l3.69 6.38v-1.03Zm7.15 13.44 3.7 6.4v-1.02l-3.7-6.41v1.03Zm10.47 18.11 1.95 3.38.54-.1-1.95-3.37-.54.1Zm-28.69-50.7-2.4-4.17-.54.1 2.94 5.1v-1.03Z"/>
  <path fill="#487EF1" d="m91.68 59.2.09-.01-1.95-3.37-.54.1 2.4 4.16v-.88Zm11.07 19-3.69-6.38v1.03l3.69 6.39V78.2Zm7.15 13.44 3.7 6.4v-1.03l-3.7-6.4v1.03Zm11 19.04 1.96 3.38.54-.1-1.95-3.38-.55.1Z"/>
  <path fill="#497EF1" d="m121.45 110.6 1.95 3.38.54-.1-1.95-3.38-.54.1Zm-18.7-33.43-3.69-6.38v1.03l3.69 6.38v-1.03ZM92.3 59.09l-1.94-3.37-.54.1 1.95 3.36.54-.1Zm17.6 31.52 3.7 6.4V96l-3.7-6.41v1.03Z"/>
  <path fill="#4A7DF1" d="m102.75 76.14-3.69-6.38v1.03l3.69 6.39v-1.04Zm19.23 34.36 1.96 3.38.54-.1-1.96-3.38-.53.1ZM109.9 89.58l3.7 6.4v-1.03l-3.7-6.4v1.03ZM92.85 59l-1.95-3.37-.54.1 1.95 3.36.54-.1Z"/>
  <path fill="#4B7DF1" d="m109.9 88.55 3.7 6.4v-1.02l-3.7-6.41v1.03Zm-7.15-13.43-3.69-6.4v1.04l3.69 6.38v-1.02ZM93.39 58.9l-1.95-3.38-.54.1 1.95 3.36.54-.09Zm29.14 51.5 1.95 3.38.55-.1-1.96-3.37-.54.09Z"/>
  <path fill="#4C7DF1" d="m123.07 110.3 1.95 3.38.54-.1-1.95-3.38-.54.1ZM109.9 86.62v.9l3.7 6.4V92.9l-3.62-6.28-.07.01Zm-6.6-11.6-4.24-7.32v1.03l3.7 6.4.53-.1ZM93.93 58.8l-1.95-3.37-.54.1 1.95 3.37.54-.1Z"/>
  <path fill="#4D7CF1" d="m123.6 110.21 1.96 3.39.54-.1-1.95-3.38-.54.1Zm-19.77-35.28-4.77-8.27v1.03l4.23 7.33.54-.1ZM94.47 58.7l-1.95-3.36-.54.1 1.95 3.36.54-.1Zm15.51 27.91 3.63 6.28v-1.03l-3.09-5.34-.54.1Z"/>
  <path fill="#4E7CF0" d="m124.15 110.12 1.95 3.38.54-.1-1.95-3.38-.54.1ZM95 58.61l-1.94-3.36-.54.1 1.95 3.36.53-.1Zm15.52 27.91 3.09 5.34v-1.03l-2.55-4.4-.54.09Zm-6.15-11.69-5.3-9.2v1.03l4.76 8.26.54-.1Z"/>
  <path fill="#4F7CF0" d="m120.5 101.74-.51-.89c.13.35.3.64.52.9Zm4.19 8.28 1.95 3.38.54-.1-1.95-3.37-.54.09Zm-19.78-35.28-1.75-3.05-.41.07V71l-3.36-5.82-.33.06v.4l5.31 9.2.54-.09ZM95.55 58.5l-1.95-3.36-.54.1L95 58.6l.55-.1Zm15.51 27.92 2.55 4.41V89.8l-2-3.47-.55.1Z"/>
  <path fill="#507BF0" d="m102.75 69.95-2.82-4.88-.54.1 3.36 5.82v-1.03Zm8.85 16.38 2 3.47v-1.04l-1.45-2.53-.55.1ZM96.09 58.42l-1.95-3.37-.53.1 1.94 3.36.54-.1Zm23.9 42.42.51.9c.28.33.63.58 1.04.76l-1.83-3.18c.02.58.12 1.1.28 1.52Zm-14.53-26.19-1.77-3.06-.54.1 1.76 3.05.55-.1Zm19.77 35.27 1.95 3.38.54-.1-1.95-3.38-.54.1Z"/>
  <path fill="#517BF0" d="m96.63 58.33-1.94-3.37-.55.1 1.95 3.36.54-.1Zm23.07 40.75.01.25 1.83 3.18c.22.1.47.17.72.22l-2.56-4.45v.8Zm6.07 10.75 1.95 3.38.54-.1-1.95-3.38-.54.1Zm-15.86-28.06.23-.04-.23-.4v.44Zm-7.16-12.84-2.28-3.95-.54.1 2.82 4.88v-1.03Zm3.25 5.61-1.76-3.05-.54.1 1.76 3.05.54-.1Zm6.15 11.69 1.46 2.53v-1.03l-.92-1.6-.54.1Z"/>
  <path fill="#527BF0" d="m126.31 109.74 1.95 3.38.54-.1-1.95-3.38-.54.1Zm-23.56-41.85-1.74-3.01-.54.1 2.28 3.94V67.9Zm3.79 6.56-1.76-3.05-.55.1 1.77 3.04.54-.09Zm-9.37-16.22-1.94-3.36-.54.09 1.94 3.37.54-.1Zm12.74 23.1.23.4.54-.1-.77-1.33v1.03Zm2.77 4.81.93 1.6V86.7l-.38-.66-.55.1Zm7.02 12.14 2.56 4.45c.2.04.42.06.64.08l-3.2-5.56v1.03Z"/>
  <path fill="#537AEF" d="m107.08 74.36-1.76-3.05-.54.1 1.76 3.05.54-.1Zm6.53 12.34v-.72l-.38.07.38.66ZM97.7 58.13l-1.94-3.37-.54.1 1.95 3.37.54-.1Zm12.21 22.17.77 1.33.54-.1-1.3-2.26v1.03Zm9.79 16.46v.49l3.2 5.55h.6l-3.52-6.09-.28.05Zm-16.95-29.9-1.2-2.08-.54.1 1.74 3.01v-1.03Zm24.1 42.78 1.95 3.38.54-.1-1.95-3.37-.54.09Z"/>
  <path fill="#547AEF" d="m127.4 109.54 1.94 3.38.54-.1-1.95-3.38-.54.1Zm-19.78-35.27-1.76-3.06-.54.1 1.76 3.05.54-.1Zm2.29 5 1.31 2.27.54-.1-1.85-3.2v1.03Zm-7.16-13.44-.66-1.14-.54.1 1.2 2.07v-1.03Zm-4.5-7.8-1.94-3.36-.55.1 1.95 3.36.54-.1Zm21.73 38.68 3.52 6.1.56-.06-3.54-6.13-.54.1Z"/>
  <path fill="#557AEF" d="m120.52 96.62 3.54 6.12c.1 0 .2-.02.3-.04l.25-.04-3.54-6.14-.55.1ZM102.75 64.8l-.11-.2-.54.1.65 1.13v-1.02Zm5.41 9.36-1.76-3.05-.54.1 1.76 3.05.54-.1Zm1.75 4.08 1.85 3.2.54-.1-2.39-4.13v1.03Zm-11.12-20.3-1.95-3.36-.53.1 1.94 3.36.54-.1Zm29.14 51.5 1.96 3.39.54-.1-1.96-3.38-.54.1Z"/>
  <path fill="#5679EF" d="m121.06 96.52 3.55 6.14.54-.1-3.55-6.13-.54.1Zm7.41 12.84 1.95 3.38.55-.1-1.96-3.38-.54.1ZM99.33 57.84l-1.95-3.36-.54.09 1.95 3.37.54-.1Zm3.42 6.73-.12.02.12.2v-.22Zm7.16 12.64 2.39 4.14.54-.1-2.93-5.07v1.03Zm-1.21-3.14-1.77-3.05-.53.1 1.76 3.04.54-.09Z"/>
  <path fill="#5779EF" d="m129.01 109.26 1.96 3.38.54-.1-1.96-3.37-.54.09ZM99.87 57.75l-1.94-3.37-.54.1 1.94 3.36.54-.09Zm10.04 18.43 2.93 5.07.54-.1-3.47-6v1.03Zm-.67-2.2-1.76-3.05-.55.1 1.77 3.05.54-.1Zm14.08 24.69v-.3l-1.18-2.04-.53.1 3.54 6.13.54-.09-1.75-3.02c-.38-.03-.62-.22-.62-.78Z"/>
  <path fill="#5879EE" d="m100.4 57.65-1.94-3.37-.54.1 1.95 3.37.54-.1Zm29.15 51.51 1.96 3.38.53-.1-1.94-3.38-.55.1Zm-6.22-11.82-.64-1.1-.54.08 1.18 2.05v-1.03Zm-2.27-3.92-1.1-1.91a3 3 0 0 0 1.1 1.91Zm2.88 6.02 1.75 3.02.54-.1-1.72-2.97c-.21.04-.4.06-.57.05Zm-14.16-25.56-1.76-3.06-.54.1 1.76 3.05.54-.1Zm.13 1.26 3.47 6.01.22-.04v-.61l-3.69-6.39v1.03Z"/>
  <path fill="#5978EE" d="M119.86 90.5c0 .35.04.7.1 1l1.1 1.92c.24.18.52.33.84.44l-2.04-3.54v.17Zm-18.91-32.94-1.94-3.37-.54.1 1.94 3.36.54-.1Zm22.37 38.74-.1-.16-.54.1.64 1.1v-1.03Zm-13.41-22.44v.25l3.69 6.39v-1.03l-5.04-8.74-.54.1 1.76 3.05.13-.02ZM124.5 99.4l1.73 2.97.54-.1-1.72-2.97-.54.1Zm5.6 9.67 1.94 3.38.55-.1-1.96-3.38-.53.1Z"/>
  <path fill="#5A78EE" d="m113.6 78.44-4.5-7.8-.54.1 5.04 8.73v-1.03Zm-12.11-20.98-1.94-3.37-.54.1 1.94 3.37.54-.1Zm29.14 51.51 1.96 3.39.54-.1-1.96-3.38-.54.1Zm-5.58-9.67 1.72 2.98.54-.1-1.72-2.97-.54.1Zm-1.72-3.18-.1.02.1.17v-.2Zm-3.47-5.8 2.05 3.54c.2.07.44.12.69.16l-2.73-4.73v1.03Z"/>
  <path fill="#5B78EE" d="m113.6 77.41-3.96-6.86-.54.1 4.5 7.8V77.4Zm12 21.8 1.71 2.97.54-.09-1.72-2.97-.53.09Zm-5.74-10.04v.12l2.73 4.73.28.03.36.03-3.3-5.73a5.9 5.9 0 0 0-.07.82Zm-17.83-31.8L100.1 54l-.54.1 1.94 3.36.54-.1Zm29.14 51.5 1.96 3.39.54-.1-1.96-3.38-.54.1Z"/>
  <path fill="#5C77EE" d="m113.6 76.38-3.68-6.39v.5l-.28.05 3.96 6.87v-1.03Zm18.12 32.4 1.95 3.38.54-.1-1.95-3.38-.54.1Zm-11.8-20.43 3.31 5.73.63.05-3.78-6.55c-.07.25-.12.5-.16.77Zm6.21 10.76 1.72 2.98.55-.1-1.72-2.98-.55.1Zm-23.56-41.84-1.94-3.37-.54.1 1.94 3.36.54-.1Z"/>
  <path fill="#5D77EE" d="m103.1 57.17-1.93-3.36-.55.09 1.95 3.37.54-.1Zm29.16 51.52 1.95 3.38.54-.1-1.95-3.38-.54.1Zm-12.19-21.1 3.79 6.55.62.05-4.18-7.24c-.09.2-.16.42-.23.64Zm6.61 11.42 1.71 2.98.54-.1-1.72-2.97-.53.1ZM113.6 75.35l-3.69-6.39v1.03l3.7 6.39v-1.03Z"/>
  <path fill="#5E77ED" d="m113.6 74.32-3.69-6.39v1.03l3.7 6.39v-1.03Zm19.2 34.28 1.95 3.37.54-.09-1.95-3.38-.55.1Zm-5.59-9.68 1.72 2.98.54-.1-1.71-2.97-.55.1Zm-23.56-41.84-1.94-3.37-.54.1 1.94 3.37.54-.1Zm16.65 29.86 4.18 7.24.62.05-4.52-7.84c-.1.18-.2.37-.28.55Z"/>
  <path fill="#5F76ED" d="m133.34 108.5 1.95 3.38.54-.1-1.95-3.39-.54.1Zm-5.58-9.67 1.71 2.98.2-.04.34-.07-1.71-2.96-.54.1Zm-23.57-41.84-1.94-3.37-.54.1 1.94 3.37.54-.1Zm9.41 16.3-3.69-6.39v1.03l3.7 6.39v-1.03Zm6.98 13.11 4.53 7.84.62.06-4.82-8.35c-.12.14-.23.3-.33.46Z"/>
  <path fill="#6076ED" d="m128.3 98.73 1.7 2.96.52-.13-1.69-2.93-.54.1Zm5.58 9.67 1.95 3.38.54-.1-1.96-3.38-.53.1Zm-29.15-51.52-1.94-3.36-.54.1 1.94 3.36.54-.1Zm8.87 15.37-3.69-6.39v1.03l3.7 6.4v-1.04Zm9.9 17.43v-.28l-2.22-3.85-.37.4 4.83 8.35.62.05-2.2-3.83c-.62-.05-.66-.23-.66-.84Z"/>
  <path fill="#6176ED" d="m105.28 56.8-1.95-3.37-.54.1 1.94 3.36.55-.1Zm18.22 31.8.01-.2-1.84-3.2-.4.35 2.23 3.85v-.8Zm.66 1.92h-.01l2.2 3.83.63.05-2.2-3.82-.62-.06Zm5.14 8.04-.46.08 1.69 2.93c.17-.05.34-.1.5-.17l-1.66-2.86-.07.02Zm5.11 9.74 1.96 3.4.54-.1-1.95-3.39-.55.1ZM113.6 71.23l-3.69-6.39v1.03l3.7 6.39v-1.03Z"/>
  <path fill="#6275ED" d="m124.78 90.58 2.2 3.83.63.05-2.2-3.83-.63-.05ZM113.6 70.19l-3.69-6.39v1.03l3.7 6.4v-1.04Zm21.36 38.02 1.95 3.38.54-.09-1.95-3.38-.54.09ZM105.81 56.7l-1.94-3.37-.54.1 1.95 3.36.53-.1Zm17.95 31.09-1.66-2.88c-.15.1-.3.2-.42.3l1.83 3.18c.04-.25.12-.45.25-.6Zm5.62 10.75 1.65 2.86c.17-.06.32-.13.48-.2l-1.62-2.8-.51.14Z"/>
  <path fill="#6375EC" d="m135.5 108.11 1.95 3.39.55-.1-1.96-3.39-.54.1Zm-11.32-20.63-1.63-2.82-.45.25 1.66 2.88c.11-.13.25-.23.42-.31ZM113.6 69.15l-3.4-5.89-.29.05v.49l3.7 6.38v-1.03Zm-7.25-12.55-1.94-3.36-.54.1 1.94 3.36.54-.1Zm19.05 34.03 2.21 3.82.63.05-2.2-3.82-.64-.05Zm4.49 7.77 1.62 2.8c.16-.07.3-.15.46-.24l-1.65-2.85c-.12.12-.26.21-.43.28Z"/>
  <path fill="#6475EC" d="m124.68 87.31-1.65-2.86-.47.2 1.63 2.82c.14-.07.31-.12.5-.16ZM106.9 56.5l-1.95-3.36-.54.1 1.94 3.36.55-.1Zm23.41 41.6 1.65 2.86c.15-.09.3-.18.43-.28l-1.8-3.12a1 1 0 0 1-.28.54Zm-4.28-7.42 2.2 3.83.63.05-2.2-3.83-.63-.05Zm10.01 17.34 1.95 3.38.54-.1-1.95-3.38-.54.1ZM113.6 68.13l-2.86-4.96-.54.1 3.4 5.89v-1.03Z"/>
  <path fill="#6574EC" d="m107.43 56.41-1.94-3.36-.54.1 1.94 3.36.54-.1Zm23.2 40.82c0 .12-.01.22-.03.32l1.8 3.12c.14-.1.28-.21.4-.33l-2.17-3.77v.66Zm-3.98-6.49 2.21 3.82.63.06-2.2-3.83-.64-.05Zm-1.82-3.46.4-.07-1.7-2.93c-.17.05-.34.1-.5.17l1.65 2.86.15-.03ZM113.6 67.1l-2.32-4.02-.54.09 2.86 4.96V67.1Zm22.98 40.83 1.95 3.38.54-.1-1.95-3.38-.54.1Z"/>
  <path fill="#6674EC" d="m113.6 66.06-1.77-3.08-.55.1 2.32 4.02v-1.04Zm17.03 30.52 2.17 3.76c.13-.12.26-.25.37-.39l-2.54-4.4v1.03Zm-9.97-18.31-.67-1.14c.16.44.38.83.67 1.14Zm5.1 8.84-1.72-2.97-.52.14 1.7 2.93.54-.1Zm1.52 3.67 2.21 3.83.48.04c.06 0 .11 0 .15.02l-2.2-3.83-.64-.06Zm9.84 17.05 1.95 3.38.55-.09-1.96-3.38-.54.09Zm-29.15-51.52-1.94-3.37-.54.1 1.94 3.36.54-.09Z"/>
  <path fill="#6774EC" d="m137.66 107.73 1.96 3.39.53-.1-1.95-3.38-.54.1Zm-24.06-42.7-1.24-2.15-.53.1 1.77 3.08v-1.03Zm12.7 21.99-1.72-2.98-.13.02-.4.08 1.7 2.98.55-.1Zm-17.79-30.8-1.94-3.36-.54.1 1.94 3.36.54-.1Zm11.48 20.9.66 1.15c.28.3.62.54 1.02.72l-1.96-3.39c.03.57.12 1.08.28 1.52Zm7.91 13.72 2.22 3.83c.36.07.5.27.5.7v.17l2.55 4.41c.12-.14.23-.29.34-.45l-4.98-8.61-.63-.05Z"/>
  <path fill="#6873EB" d="m128.54 90.9 4.97 8.61.29-.52-4.64-8.04-.62-.05ZM113.6 64l-.7-1.21-.54.1 1.24 2.14V64Zm13.24 22.93-1.73-2.98-.54.1 1.73 2.98.54-.1Zm11.36 20.71 1.95 3.38.54-.1-1.95-3.38-.54.1Zm-29.14-51.51-1.94-3.37-.55.1 1.95 3.36.54-.1ZM121.66 79c.23.09.47.17.73.22l-2.7-4.67v.68l.02.38 1.95 3.38Z"/>
  <path fill="#6973EB" d="m123.03 79.3-3.33-5.78v1.04l2.69 4.66c.2.04.42.06.64.08ZM109.6 56.03l-1.94-3.36-.54.09 1.94 3.37.54-.1Zm19.56 34.92L133.8 99c.1-.2.17-.4.23-.62L129.78 91l-.62-.05Zm9.58 16.6 1.95 3.38.55-.1-1.96-3.38-.54.1ZM113.6 62.97l-.16-.27-.53.09.7 1.2v-1.02Zm13.78 23.86-1.72-2.99-.54.1 1.72 2.98.54-.1Z"/>
  <path fill="#6A73EB" d="m123.62 79.3-3.92-6.8v1.03l3.33 5.77h.6Zm15.66 28.15 1.96 3.38.53-.1-1.95-3.37-.54.09Zm-29.14-51.52-1.95-3.37-.54.1 1.94 3.36.55-.09Zm3.46 6.74-.16.03.16.27v-.3ZM129.79 91l4.25 7.36c.07-.23.13-.48.17-.73l-3.8-6.58-.62-.05Zm-1.87-4.26-1.73-2.99-.53.1 1.72 2.98.54-.1Z"/>
  <path fill="#6B72EB" d="m110.68 55.83-1.95-3.36-.54.1 1.95 3.36.54-.1Zm13.5 23.4-4.48-7.77v1.03l3.92 6.8.56-.06Zm6.23 11.82 3.8 6.58c.04-.29.07-.59.07-.9l-3.24-5.62-.63-.06Zm-1.95-4.41-1.72-2.98-.54.1 1.72 2.98.54-.1Zm11.36 20.71 1.95 3.38.54-.1-1.95-3.38-.54.1Z"/>
  <path fill="#6C72EB" d="m140.36 107.25 1.96 3.38.36-.06.25.09-2.03-3.5-.54.09Zm-9.26-16.14h-.06l3.24 5.62V95.7l-2.6-4.5a6.35 6.35 0 0 0-.58-.09Zm-19.88-35.37-1.95-3.36-.53.1 1.94 3.36.53-.1Zm13.21 23.46.3-.06-5.03-8.71v1.03l4.48 7.77.25-.03Zm6.16 10.73.33-.06-.33-.58v.64ZM129 86.55l-1.72-2.99-.54.1 1.72 2.98.54-.1Z"/>
  <path fill="#6D72EB" d="m129.4 86.47.14-.02-1.72-2.99-.54.1 1.73 2.98.39-.07Zm1.19 2.82.33.57.54-.09-.87-1.51v1.03Zm-18.83-33.64-1.95-3.36-.54.09 1.95 3.36.54-.1Zm19.93 35.55 2.6 4.5v-1.03l-1.9-3.27a3.8 3.8 0 0 0-.7-.2Zm9.21 15.96 2.03 3.5.75.28-2.24-3.87-.53.1Zm-15.63-28.11-5.57-9.64v1.02l5.03 8.72.54-.1Z"/>
  <path fill="#6E71EA" d="m141.44 107.06 2.24 3.88.75.27-2.45-4.24-.54.1ZM112.3 55.55l-1.94-3.37-.55.1 1.95 3.36.54-.1Zm13.51 23.4-1.8-3.12c-.46-.06-.62-.4-.62-1.05v-.02l-3.7-6.4v1.04l5.58 9.65.54-.1Zm4.78 9.31.87 1.51.54-.1-1.41-2.44v1.03Zm2.71 3.68a3 3 0 0 0-.9-.54l1.88 3.26v-.23c0-.36-.03-.68-.1-.98l-.88-1.51Zm-3.16-5.49-1.78-3.08-.54.1 1.72 2.98c.24-.03.43-.04.6 0Z"/>
  <path fill="#6F71EA" d="m133.3 91.94.88 1.52a2.76 2.76 0 0 0-.87-1.52Zm-2.71-4.74v.02l1.4 2.45.55-.1-3.64-6.3-.54.1 1.78 3.07c.27.08.45.29.45.76Zm11.39 19.77 2.45 4.24.76.28-2.67-4.62-.54.1Zm-18.59-33.24-3.7-6.4v1.04l3.7 6.4v-1.04Zm-10.55-18.27-1.94-3.37-.54.1 1.94 3.36.54-.1Zm11.68 20.36c-.12.02-.23.03-.35.03l-.16-.01 1.8 3.12.54-.1-1.77-3.05h-.06Z"/>
  <path fill="#7071EA" d="m142.52 106.87 2.67 4.61.75.28-2.88-4.99-.54.1Zm-29.14-51.51L111.43 52l-.54.1 1.94 3.36.55-.1Zm10.01 17.34-3.7-6.4v1.04l3.7 6.39V72.7Zm1.19 3.1 1.77 3.06.54-.1-1.76-3.05-.55.1Zm8.5 13.69-3.64-6.3-.54.1 3.64 6.3.54-.1Z"/>
  <path fill="#7170EA" d="M133.62 89.4 130 83.1l-.46.06-.1.01 3.64 6.3.54-.08Zm-19.7-34.14-1.94-3.36-.55.1 1.95 3.36.54-.1Zm29.18 51.51h-.04l2.88 5 .76.27-2.9-5-.7-.27ZM125.13 75.7l1.76 3.07.54-.1-1.77-3.06-.53.1Zm-1.74-4.03-3.64-6.3c-.03.27-.05.56-.05.85v.09l3.69 6.4v-1.04Z"/>
  <path fill="#7270EA" d="m143.8 107.03 2.9 5.01.75.28-2.9-5.02-.75-.27Zm-18.13-31.41 1.76 3.05.54-.09-1.77-3.06-.53.1Zm15.05 25.14.06-.01-.04-.06-.02.07Zm-17.33-30.13-3.5-6.06c-.06.25-.1.52-.14.8l3.64 6.3v-1.04Zm10.77 18.67-3.6-6.23c-.19 0-.38.02-.57.04l3.63 6.28.54-.1Zm-19.7-34.13-1.94-3.37-.54.1 1.94 3.36.54-.1Z"/>
  <path fill="#7370E9" d="m140.74 100.7.03.05.54-.1-.34-.6-.23.64Zm-17.35-31.1-3.29-5.69c-.08.21-.15.44-.2.67l3.49 6.06V69.6Zm10.82 19.68v-.93l-3.04-5.26a4.53 4.53 0 0 0-.47-.03h-.13l3.6 6.23h.04Zm10.35 18.02 2.9 5.01.75.28-2.9-5.01-.75-.28ZM126.2 75.51l1.77 3.06.54-.1-1.76-3.05-.54.1ZM115 55.07l-1.94-3.36-.54.1 1.94 3.36.54-.1Z"/>
  <path fill="#746FE9" d="m123.39 68.58-3.03-5.24c-.1.18-.18.37-.26.57l3.29 5.7v-1.03Zm21.92 39 2.9 5.01.75.28-2.9-5.02-.75-.27Zm-29.77-52.6-1.94-3.36-.55.09 1.95 3.36.54-.09Zm18.67 32.34-2.38-4.12a4.7 4.7 0 0 0-.66-.12l3.04 5.27v-1.03Zm-7.46-11.9 1.76 3.06.54-.1-1.77-3.05-.53.1Zm14.22 24.63.35.6.54-.09-.66-1.15-.22.64Z"/>
  <path fill="#756FE9" d="m127.29 75.33 1.77 3.06.53-.1-1.76-3.06-.54.1Zm6.92 11.47c0-.2 0-.38-.03-.55l-1.57-2.74c-.24-.13-.5-.23-.78-.3l2.38 4.11v-.52Zm-10.82-19.25-2.71-4.7c-.12.15-.22.31-.31.49l3.02 5.23v-1.02Zm17.81 31.86.66 1.15.54-.1-.97-1.69-.23.64Zm-25.12-44.53-1.94-3.36-.54.1 1.94 3.36.54-.1Zm29.99 52.98 2.9 5.01.75.28-2.9-5.02-.75-.27Z"/>
  <path fill="#766FE9" d="m116.62 54.79-1.95-3.37-.53.1 1.94 3.36.54-.1Zm24.8 43.99.98 1.7.54-.1-1.3-2.24-.22.64Zm5.4 9.35 2.9 5.01.75.28-2.9-5.02-.75-.27Zm-23.43-41.62-2.36-4.1c-.13.14-.25.28-.35.43l2.7 4.7v-1.03Zm9.22 16.99 1.58 2.74c-.13-1.33-.7-2.24-1.58-2.73Zm-4.78-8.27 1.77 3.06h.06l.47-.1-1.76-3.05-.54.1Z"/>
  <path fill="#776EE9" d="m117.16 54.7-1.94-3.37-.54.1 1.94 3.36.54-.1Zm24.49 43.44 1.29 2.23.54-.1-1.6-2.77-.23.64Zm-13.28-23.01 1.75 3.05.51-.15-1.72-3-.54.1Zm19.2 33.27 2.9 5.02.75.28-2.9-5.02-.75-.28Zm-24.18-42.83v-.1l-1.98-3.42c-.14.11-.27.24-.38.37l2.36 4.1v-.95Z"/>
  <path fill="#786EE8" d="m129.25 74.98-.34.06 1.72 3 .5-.19-1.7-2.91-.18.04Zm19.08 33.69 2.9 5.02.75.28-2.9-5.03-.75-.27ZM117.7 54.6l-1.94-3.37-.54.1 1.94 3.36.54-.1Zm24.18 42.9 1.6 2.78.54-.1-1.92-3.32-.22.64Zm-18.32-32.76-1.75-3.02c-.14.1-.28.2-.4.32l1.98 3.43c-.02-.26.05-.51.17-.73Z"/>
  <path fill="#796EE8" d="m142.1 96.86 1.92 3.32.49-.09.02-.05-2.2-3.82-.23.64Zm6.98 12.09 2.9 5.02.75.28-2.9-5.02-.75-.28Zm-19.64-34.01 1.69 2.92a5 5 0 0 0 .46-.22l-1.66-2.89a2 2 0 0 1-.49.19Zm-5.52-10.6-1.66-2.89-.44.27 1.74 3.02c.1-.15.22-.29.36-.4Zm-5.68-9.84-1.94-3.37-.54.1 1.94 3.36.54-.1Z"/>
  <path fill="#7A6DE8" d="m142.32 96.22 2.2 3.82.24-.64-2.2-3.82-.24.64Zm7.52 13 2.9 5.02.75.27-2.9-5.01-.75-.28ZM124.38 64.1l-1.66-2.88c-.17.07-.32.15-.47.23l1.67 2.89c.14-.11.3-.19.46-.23Zm-5.6-9.7-1.94-3.36-.54.1 1.94 3.36.54-.1Zm11.15 20.34 1.66 2.89c.16-.08.3-.17.44-.26l-1.72-3c-.1.15-.22.28-.38.37Z"/>
  <path fill="#7C6DE8" d="m130.31 74.38 1.73 2.99c.14-.1.28-.2.4-.31l-1.91-3.33c-.03.26-.1.47-.22.65Zm20.28 35.12 2.9 5.02.75.27-2.9-5.02-.75-.27Zm-26-45.43.07-.01.26-.05-1.72-2.97c-.16.05-.32.12-.48.19l1.66 2.88c.07-.02.14-.04.2-.04Zm-5.27-9.77-1.94-3.35-.54.1 1.94 3.36.54-.1Zm23.23 41.28 2.2 3.82.23-.64-2.2-3.82-.23.64Z"/>
  <path fill="#7D6CE8" d="m142.78 94.94 2.2 3.82.23-.64-2.2-3.82-.23.64ZM125.46 63.9l-1.75-3.02c-.17.04-.34.1-.5.15l1.71 2.98.54-.1Zm25.88 45.87 2.9 5.02.76.27-2.9-5.02-.76-.27Zm-20.79-36.31-.01.27 1.92 3.33.38-.37-2.29-3.96v.73Zm-10.69-19.25-1.94-3.36-.54.1 1.94 3.35.54-.09Z"/>
  <path fill="#7E6CE8" d="m143 94.3 2.21 3.81.22-.64-2.2-3.81-.22.64Zm-22.6-40.18-1.94-3.37-.54.1 1.94 3.37.54-.1Zm5.6 9.7-1.76-3.05-.53.11 1.75 3.03.55-.1Zm4.55 8.91 2.29 3.96c.13-.13.24-.27.35-.41l-2.65-4.58v1.03Zm21.55 37.32 2.9 5.02.75.27-2.9-5.02-.75-.27Z"/>
  <path fill="#7F6CE7" d="m152.85 110.33 2.9 5.02.76.27-2.9-5.02-.76-.27Zm-22.3-38.63 2.65 4.57c.11-.15.22-.31.32-.48l-2.97-5.13v1.03Zm-4.01-7.98-1.76-3.06-.5.1h-.04l1.76 3.05.54-.09Zm-5.6-9.69L119 50.66l-.54.1 1.95 3.36.53-.1Zm22.29 39.63 2.2 3.81.23-.64-2.2-3.81-.23.64Z"/>
  <path fill="#806BE7" d="m127.08 63.62-1.76-3.05-.54.1 1.76 3.05.54-.1Zm26.52 46.98 2.9 5.02.76.27-2.9-5.02-.76-.28Zm-23.05-39.93 2.96 5.13c.1-.18.2-.37.28-.56l-3.24-5.6v1.03Zm-9.07-16.75-1.94-3.36-.54.1 1.94 3.36.54-.1Zm21.98 39.1 2.2 3.81.23-.63-2.2-3.82-.23.64Z"/>
  <path fill="#816BE7" d="m127.62 63.53-1.76-3.05-.54.1 1.76 3.05.54-.1Zm-5.59-9.7-1.95-3.36-.54.09 1.94 3.36.55-.09Zm21.65 38.55 2.2 3.82.24-.64-2.2-3.82-.24.64Zm10.68 18.49 2.9 5.03.76.27-2.9-5.02-.76-.28Zm-23.81-41.24 3.24 5.6c.08-.2.16-.42.22-.65l-3.46-5.98v1.03Z"/>
  <path fill="#826BE7" d="m122.56 53.74-1.94-3.37-.54.1 1.94 3.36.54-.1Zm32.55 57.4 2.9 5.03.76.27-2.9-5.02-.76-.28Zm-11.2-19.4 2.2 3.82.23-.64-2.2-3.82-.23.64Zm-15.75-28.31-1.76-3.05-.54.1 1.76 3.05.54-.1Zm2.39 5.17 3.46 5.98c.06-.24.12-.5.16-.76l-3.62-6.25v1.03Z"/>
  <path fill="#836AE7" d="m123.1 53.64-1.94-3.36-.54.1 1.94 3.36.54-.1Zm32.77 57.78 2.9 5.02.76.28-2.9-5.03-.76-.27ZM128.7 63.34l-1.75-3.06-.55.1 1.76 3.05.55-.1Zm1.85 4.23 3.61 6.26c.05-.3.06-.6.07-.92l-3.68-6.37v1.03Zm13.59 23.53 2.2 3.82.23-.64-2.2-3.82-.23.64Z"/>
  <path fill="#846AE6" d="m130.55 66.54 3.68 6.37V71.9l-3.68-6.38v1.03Zm-1.31-3.29-1.76-3.06-.54.1 1.76 3.05.54-.1Zm-5.6-9.71-1.94-3.36-.54.1 1.94 3.36.54-.1Zm32.98 58.15 2.9 5.03.76.27-2.9-5.02-.76-.28Zm-12.25-21.23 2.2 3.82.22-.64-2.2-3.82-.22.64Z"/>
  <path fill="#856AE6" d="m130.55 65.5 3.68 6.38v-1.03l-3.68-6.38v1.03Zm-6.37-12.06-1.94-3.36-.54.1 1.94 3.36.54-.1Zm33.2 58.53 2.9 5.03.75.27-2.9-5.03-.75-.27ZM129.4 63.22c.15-.03.28-.04.4-.03l-1.78-3.1-.54.1 1.77 3.06.15-.03Zm15.2 26.6 2.2 3.82.22-.64-2.2-3.81-.23.63Z"/>
  <path fill="#8669E6" d="m158.13 112.25 2.9 5.03.76.27-2.9-5.03-.76-.27Zm-13.32-23.06 2.2 3.81.23-.64-2.2-3.81-.23.64Zm-14.26-25.03v.31l3.68 6.38v-1.03L128.57 60l-.54.1 1.78 3.08c.51.02.74.3.74.98Zm-5.83-10.8-1.94-3.37-.54.1 1.94 3.36.54-.1Z"/>
  <path fill="#8769E6" d="m125.26 53.25-1.94-3.36-.54.1 1.94 3.36.54-.1Zm19.78 35.3 2.2 3.82.23-.65-2.2-3.81-.23.64Zm13.84 23.97 2.9 5.03.76.27-2.9-5.03-.76-.28Zm-24.65-43.73-5.13-8.89-.54.1 5.67 9.82v-1.03Z"/>
  <path fill="#8869E6" d="m134.23 67.76-4.58-7.95-.15.02-.4.07 5.13 8.9v-1.04Zm11.04 20.14 2.2 3.82.23-.64-2.2-3.81-.23.64Zm14.37 24.9 2.9 5.03.76.27-2.9-5.03-.76-.28ZM125.8 53.16l-1.94-3.36-.53.1 1.94 3.36.54-.1Z"/>
  <path fill="#8968E5" d="m152.02 97.8.13-.03-.13-.24v.26Zm-6.52-10.54 2.2 3.82.22-.64-2.2-3.82-.23.64Zm14.9 25.8 2.9 5.04.75.27-2.9-5.04-.76-.27Zm-26.17-46.34-4.03-6.97a6.6 6.6 0 0 0-.55.06l4.58 7.95v-1.04Zm-7.89-13.66-1.94-3.36-.54.1 1.95 3.35.53-.09Z"/>
  <path fill="#8A68E5" d="m145.72 86.63 2.2 3.81.23-.64-2.2-3.81-.23.64Zm-18.83-33.66-1.95-3.36-.54.1 1.94 3.36.55-.1Zm7.35 12.73-3.45-5.96-.15-.01c-.15 0-.3 0-.43.02l4.03 6.98V65.7Zm6.03 10.72.14-.03-.14-.23v.26Zm20.88 36.91 2.9 5.04.76.27-2.9-5.03-.76-.28Zm-9.13-15.8.13.24.54-.1-.67-1.17v1.03Z"/>
  <path fill="#8B68E5" d="m127.42 52.87-1.94-3.36-.54.1 1.95 3.36.53-.1Zm34.48 60.74 2.9 5.04.76.27-2.9-5.03-.76-.28Zm-9.88-17.11.67 1.18.55-.1-1.22-2.11v1.03Zm-17.79-31.84-2.81-4.88a4.4 4.4 0 0 0-.63-.05l3.45 5.96v-1.03Zm6.04 10.47v1.03l.14.23.54-.1-.68-1.16Zm5.67 10.85 2.2 3.82.24-.64-2.2-3.81-.24.63Z"/>
  <path fill="#8C67E5" d="m162.66 113.89 2.9 5.04.76.27-2.91-5.04-.75-.27Zm-10.64-19.34v.92l1.22 2.11.53-.1-1.7-2.94-.05.01ZM134.24 63.8v-.17l-2.11-3.65a3.43 3.43 0 0 0-.7-.19l2.8 4.88v-.86Zm-6.28-11.02-1.94-3.36-.54.1 1.94 3.36.54-.1Zm13.53 23.42-1.22-2.1v1.03l.68 1.17.54-.1Zm4.68 9.15 2.2 3.81.23-.64-2.2-3.81-.23.64Z"/>
  <path fill="#8D67E5" d="m163.4 114.16 2.92 5.04.75.27-2.91-5.04-.75-.27Zm-34.9-61.48-1.94-3.36-.54.09 1.94 3.36.55-.1Zm23.58 41.86 1.7 2.95.54-.1-1.7-2.94-.54.1ZM134.06 62.3l-1.03-1.77a3.04 3.04 0 0 0-.9-.54l2.1 3.64a5.96 5.96 0 0 0-.17-1.33Zm12.34 22.4 2.2 3.82.23-.64-2.2-3.81-.23.64Zm-4.37-8.59-1.76-3.04v1.03l1.22 2.1.54-.09Z"/>
  <path fill="#8E67E5" d="m142.57 76-2.3-3.97v1.03l1.76 3.04.54-.1Zm21.98 38.58-.4-.14 2.92 5.04.75.28-3.27-5.68v.5Zm-31.52-54.05 1.03 1.77a3.46 3.46 0 0 0-1.03-1.77Zm-3.99-7.94-1.94-3.37-.54.1 1.95 3.36.53-.1Zm17.59 31.48 2.2 3.81.23-.64-2.2-3.81-.24.64Zm5.99 10.38 1.7 2.95.54-.1-1.7-2.94-.54.1Z"/>
  <path fill="#8F66E4" d="m164.55 114.08 3.28 5.68.39.14v-.5l-3.67-6.35v1.03Zm-11.39-19.73 1.7 2.94.54-.1-1.7-2.94-.54.1Zm-10.05-18.43-2.84-4.91v1.03l2.3 3.97.54-.09Zm3.74 7.51 2.2 3.81.23-.64-2.2-3.81-.23.64Zm-17.26-30.94-1.94-3.36-.54.1 1.94 3.36.54-.1Z"/>
  <path fill="#9066E4" d="m164.55 113.05 3.67 6.34v-1.03l-3.67-6.35v1.04Zm-20.9-37.23-3.38-5.85V71l2.84 4.92.54-.1ZM130.13 52.4l-1.95-3.36-.54.1 1.94 3.35.54-.09Zm16.95 30.39 2.2 3.81.23-.64-2.2-3.81-.23.64Zm6.62 11.47 1.7 2.95.3-.06v-.44l-1.46-2.54-.54.1Z"/>
  <path fill="#9166E4" d="m164.55 112.01 3.67 6.35v-1.03l-3.67-6.35v1.03Zm-20.36-36.29-3.92-6.78v1.03l3.38 5.85.54-.1ZM130.67 52.3l-1.94-3.36-.54.09 1.94 3.36.54-.1Zm16.63 29.84 2.2 3.82.24-.64-2.21-3.82-.23.64Zm6.94 12.03 1.47 2.53v-1.03l-.93-1.6-.54.1Z"/>
  <path fill="#9265E4" d="m154.79 94.07.92 1.6v-1.03l-.38-.66-.54.09ZM131.2 52.2l-1.93-3.36-.54.1 1.94 3.36.54-.1Zm16.33 29.3 2.2 3.82.23-.64-2.2-3.82-.23.64Zm-2.8-5.87-4.46-7.72v1.03l3.92 6.78.54-.09Zm19.82 35.36 3.67 6.34v-1.03l-3.67-6.35V111Z"/>
  <path fill="#9365E4" d="m164.55 109.95 3.67 6.35v-1.03l-3.67-6.35v1.03Zm-19.28-34.42-5-8.65v1.03l4.46 7.72.54-.1ZM131.75 52.1l-1.94-3.35-.55.1 1.95 3.36.54-.1Zm16.01 28.76 2.2 3.82.23-.64-2.2-3.82-.23.64Zm7.94 13.78v-.73l-.38.07.39.66Z"/>
  <path fill="#9465E3" d="m147.99 80.23 2.2 3.82.23-.64-2.2-3.82-.23.64Zm16.56 28.7 3.67 6.34v-1.03l-3.67-6.35v1.04Zm-32.26-56.91-1.94-3.36-.54.1 1.94 3.35.54-.1Zm13.52 23.41-1.76-3.06-.09.02v-.16l-3.69-6.39v1.04l5 8.65.54-.1Z"/>
  <path fill="#9564E3" d="m146.35 75.34-1.76-3.06-.54.1 1.76 3.05.54-.1Zm1.85 4.26 2.21 3.81.22-.64-2.2-3.82-.22.64Zm-4.24-8.4-3.69-6.38v1.03l3.7 6.39V71.2Zm20.59 36.7 3.67 6.34v-1.03l-3.67-6.35v1.03Zm-31.72-55.98-1.95-3.36-.53.1 1.94 3.35.54-.1Zm25.45 44.78.37-.06-.37-.63v.7Z"/>
  <path fill="#9664E3" d="m148.59 78.52-.16.43 2.2 3.82.23-.64-2.1-3.64-.17.03Zm9.69 17.49.37.64.54-.1-.9-1.57V96Zm-24.91-44.19-1.94-3.36-.55.1 1.94 3.36.55-.1Zm10.59 18.35-3.69-6.39v1.04l3.7 6.38v-1.03Zm2.94 5.08-1.77-3.06-.54.1 1.77 3.05.53-.1Zm17.65 31.61 3.67 6.34v-1.03l-3.67-6.34v1.03Z"/>
  <path fill="#9764E3" d="m143.96 69.14-3.69-6.39v1.03l3.7 6.39v-1.03Zm20.59 36.68 3.67 6.35v-1.03l-3.67-6.34v1.02Zm-6.27-10.84.91 1.57.54-.1-1.44-2.5v1.03Zm-9.52-16.49 2.1 3.64.23-.64-1.79-3.1-.54.1Zm-1.33-3.34-1.76-3.05-.54.09 1.77 3.06.53-.1Zm-13.52-23.43-1.94-3.36-.54.1 1.94 3.36.54-.1Z"/>
  <path fill="#9863E3" d="m134.45 51.64-1.94-3.36-.54.09 1.94 3.36.54-.1Zm9.51 16.46-3.69-6.38v1.04l3.7 6.38v-1.03Zm5.34 10.3 1.79 3.09.23-.64-1.47-2.55-.55.1Zm15.25 26.4 3.67 6.34v-1.03l-3.67-6.34v1.03Zm-6.27-11.34v.48l1.45 2.5.54-.09-1.7-2.94-.28.05Zm-10.3-18.4L146.2 72l-.54.1 1.76 3.05.55-.1Z"/>
  <path fill="#9963E2" d="m143.96 67.08-3.69-6.39v1.03l3.7 6.39v-1.03Zm20.59 35.9v.78l3.67 6.35v-1.04l-3.53-6.11-.14.02Zm-5.97-9.56 1.7 2.94.53-.1-1.7-2.93-.53.09Zm-10.07-18.46-1.76-3.06-.54.1 1.76 3.05.54-.1ZM135 51.53l-1.95-3.36-.54.1 1.94 3.36.54-.1Zm14.85 26.77 1.47 2.54.22-.64-1.15-2-.54.1Z"/>
  <path fill="#9A63E2" d="m164.68 102.96 3.53 6.12v-1.03l-2.99-5.19-.54.1Zm-29.15-51.52-1.94-3.36-.54.1 1.94 3.35.54-.09Zm13.53 23.43-1.77-3.05-.54.1 1.76 3.05.55-.1Zm10.06 18.45 1.7 2.94.53-.1-1.7-2.94-.53.1Zm-15.16-27.27-3.69-6.39v1.04l3.7 6.38v-1.03Zm6.44 12.15 1.15 2 .22-.64-.84-1.45-.54.1Z"/>
  <path fill="#9B62E2" d="m149.6 74.77-1.77-3.05-.54.1 1.77 3.05.53-.1Zm-5.64-9.75-3.69-6.39v1.03l3.7 6.39v-1.03Zm6.97 13.08.84 1.46.23-.64-.53-.9-.54.09Zm8.72 15.12 1.7 2.95.54-.1-1.7-2.94-.54.1Zm-23.58-41.88-1.94-3.36-.54.1 1.94 3.36.54-.1Zm29.15 51.52 3 5.18v-1.03l-2.46-4.25-.54.1Z"/>
  <path fill="#9C62E2" d="m150.13 74.68-1.76-3.06-.54.1 1.76 3.05.54-.1Zm-6.17-10.7-3.5-6.05-.19.03v.67l3.7 6.38v-1.03Zm8.06 13.94-.55.1.53.9.22-.64-.2-.36Zm8.18 15.21 1.7 2.93h.07v-.89l-1.23-2.14-.54.1Zm5.56 9.64 2.45 4.24v-.98h.03l-1.94-3.36-.54.1Zm-29.15-51.52-1.94-3.36-.54.1 1.94 3.35.54-.09Z"/>
  <path fill="#9D62E2" d="m137.15 51.15-1.94-3.36-.54.1 1.94 3.36.54-.1Zm13.53 23.43-1.77-3.06-.53.1 1.76 3.05.54-.1Zm15.62 28.09 1.94 3.35.54-.1-1.94-3.35-.54.1Zm-13.93-24.8-.35.06.2.36.15-.42Zm8.36 15.16 1.24 2.15v-1.04l-.7-1.2-.54.1Zm-16.77-30.07L141 57.83l-.54.1 3.5 6.06v-1.03Z"/>
  <path fill="#9E61E2" d="m166.84 102.57 1.94 3.36.54-.1-1.94-3.36-.54.1Zm-5.57-9.63.7 1.2v-1.03l-.16-.27-.54.1ZM151.21 74.5l-1.76-3.06-.54.1 1.77 3.05.53-.1ZM137.7 51.05l-1.94-3.36-.55.1 1.94 3.36.54-.1Zm6.27 10.87-2.42-4.19-.54.1 2.96 5.12v-1.03Z"/>
  <path fill="#9F61E1" d="M161.97 93.11v-.3l-.15.03.15.27Zm-18.01-32.22-1.88-3.25-.54.1 2.42 4.18v-1.03Zm7.8 13.51L150 71.33l-.54.1 1.76 3.05.54-.1Zm-13.53-23.44-1.94-3.36-.54.1 1.94 3.35.54-.1Zm29.15 51.51 1.94 3.36.53-.1-1.93-3.36-.54.1Z"/>
  <path fill="#A061E1" d="m143.97 59.86-1.34-2.31-.54.1 1.88 3.24v-1.03Zm23.95 42.52 1.93 3.35.54-.1-1.93-3.35-.54.1Zm-29.15-51.51-1.94-3.36-.54.1 1.95 3.35.53-.1Zm25.78 44.73h.05l-.05-.08v.08ZM152.3 74.3l-1.76-3.06-.55.1 1.77 3.05.54-.1Z"/>
  <path fill="#A160E1" d="m139.31 50.77-1.94-3.36-.54.1 1.94 3.36.54-.1Zm29.15 51.51 1.93 3.36.54-.1-1.94-3.35-.53.1ZM152.84 74.2l-1.76-3.06-.54.1 1.76 3.05.54-.1Zm11.71 21.31.05.08.54-.1-.59-1.01v1.03Zm-20.59-36.68-.8-1.38-.53.1 1.33 2.31v-1.03Z"/>
  <path fill="#A260E1" d="m143.96 57.8-.25-.45-.54.1.8 1.38v-1.04Zm20.59 36.68.59 1.01.54-.09-1.13-1.95v1.03Zm4.45 7.7 1.94 3.36.53-.1-1.93-3.35-.54.1Zm-29.15-51.51-1.94-3.36-.53.1 1.93 3.36.54-.1Zm12.99 22.49-1.23-2.11-.54.1 1.77 3.05v-1.04Z"/>
  <path fill="#A360E1" d="m169.54 102.09 1.93 3.36.54-.1-1.93-3.36-.54.1ZM140.4 50.58l-1.95-3.36-.54.1 1.94 3.36.54-.1Zm12.44 21.55-.68-1.18-.55.1 1.23 2.11v-1.03Zm-8.88-14.83-.25.05.25.44v-.48Zm20.59 36.15 1.13 1.95.54-.09-1.67-2.9v1.04Z"/>
  <path fill="#A45FE0" d="m170.08 101.99 1.93 3.35.54-.1-1.93-3.35-.54.1Zm-5.53-9.63v.05l1.67 2.9.54-.1-1.7-2.94-.5.09Zm-23.62-41.87L139 47.13l-.54.09 1.94 3.36.54-.1Zm11.91 20.61-.15-.24-.53.1.68 1.18V71.1Z"/>
  <path fill="#A55FE0" d="m165.06 92.27 1.7 2.95.54-.1-1.7-2.94-.54.1Zm5.56 9.63 1.93 3.35.54-.1-1.93-3.35-.54.1Zm-17.78-31.07-.15.03.15.24v-.27Zm-11.37-20.45-1.94-3.36-.54.1 1.94 3.36.54-.1Z"/>
  <path fill="#A65FE0" d="m142.01 50.3-1.94-3.37-.54.1 1.94 3.35.54-.09Zm23.59 41.88 1.7 2.94.54-.1-1.7-2.94-.54.1Zm5.56 9.62 1.93 3.35.54-.1-1.94-3.35-.53.1Z"/>
  <path fill="#A75EE0" d="m171.7 101.7 1.93 3.36.54-.1-1.94-3.36-.54.1Zm-5.56-9.61 1.7 2.94.4-.07v-.28L166.68 92l-.54.1ZM142.56 50.2l-1.94-3.36-.55.1 1.95 3.36.53-.1Z"/>
  <path fill="#A85EE0" d="m166.68 91.98 1.55 2.7v-1.04l-1-1.75-.55.1ZM143.1 50.1l-1.95-3.35-.54.09 1.94 3.36.54-.1Zm29.13 51.5 1.94 3.35.54-.1-1.94-3.35-.54.1Z"/>
  <path fill="#A95EDF" d="m143.64 50-1.94-3.36-.54.1 1.94 3.36.54-.1Zm29.13 51.5 1.94 3.36.54-.1-1.94-3.35-.54.1Zm-5.55-9.6 1.01 1.74v-1.03l-.47-.81-.54.1Z"/>
  <path fill="#AA5DDF" d="m144.17 49.91-1.93-3.36-.55.1 1.94 3.36.54-.1Zm24.06 42.7v-.9l-.47.08.47.82Zm5.08 8.79 1.94 3.36.54-.1-1.94-3.35-.54.1Z"/>
  <path fill="#AB5DDF" d="m173.85 101.31 1.94 3.36.54-.1-1.94-3.36-.54.1Zm-29.14-51.49-1.93-3.36-.54.1 1.93 3.35.54-.1Z"/>
  <path fill="#AC5DDF" d="m174.39 101.22 1.94 3.35.53-.1-1.93-3.35-.54.1Zm-29.14-51.5-1.94-3.36-.53.1 1.93 3.35.54-.1Z"/>
  <path fill="#AD5CDF" d="m145.8 49.62-1.94-3.36-.55.1 1.94 3.36.54-.1Zm13.3 23.51.24-.05-.24-.4v.45Zm15.83 27.99 1.93 3.35.54-.1-1.93-3.35-.54.1Z"/>
  <path fill="#AE5CDF" d="m159.1 72.67.24.41.54-.1-.78-1.34v1.03ZM175.6 101l-.13.02 1.93 3.35.54-.1-2.33-4.04v.76Zm-29.27-51.47-1.94-3.36-.53.1 1.93 3.36.54-.1Z"/>
  <path fill="#AF5CDE" d="m146.88 49.43-1.94-3.35-.54.1 1.94 3.35.54-.1Zm12.22 22.21.78 1.35.54-.1-1.32-2.28v1.03Zm16.5 28.59 2.34 4.04.54-.1-2.87-4.97v1.03Z"/>
  <path fill="#B05BDE" d="m175.6 99.2 2.88 4.98.54-.1-3.41-5.91v1.03Zm-28.18-49.86-1.94-3.36-.54.1 1.94 3.35.54-.1Zm11.68 21.27 1.32 2.28.54-.1-1.86-3.2v1.02Z"/>
  <path fill="#B15BDE" d="m147.96 49.24-1.94-3.36-.54.1 1.94 3.36.54-.1Zm27.64 48.93 3.42 5.91.26-.04v-.55l-3.67-6.35v1.03ZM154.2 60.3l.72.98-1.17-2.02c.09.37.23.72.44 1.04Zm4.9 9.28 1.86 3.21.54-.1-2.4-4.15v1.04Z"/>
  <path fill="#B25BDE" d="m148.5 49.15-1.94-3.36-.54.1 1.94 3.35.54-.09Zm5.15 9.13c-.02.33.02.66.1.99l1.16 2.01 2.79 3.8-4.05-7.01v.2Zm5.45 10.26 2.4 4.16.54-.1-2.94-5.09v1.03Zm16.5 28.59 3.68 6.36v-1.03l-3.67-6.36v1.03Z"/>
  <path fill="#B35ADE" d="m175.6 96.1 3.68 6.35v-1.03l-3.67-6.35v1.03Zm-26.56-47.05-1.94-3.36-.54.1 1.94 3.35.54-.1Zm4.61 9.02 4.04 7L159.1 67v.53l2.94 5.09.54-.1-8.93-15.47v1.03Z"/>
  <path fill="#B45ADD" d="m153.65 57.04 8.93 15.47.21-.03v-.64l-9.14-15.83v1.03Zm21.95 38.03 3.68 6.35v-1.03l-3.67-6.35v1.03Zm-26.03-46.12-1.93-3.35-.54.09 1.94 3.36.53-.1Z"/>
  <path fill="#B55ADD" d="m150.12 48.85-1.94-3.36-.54.1 1.93 3.36.55-.1Zm25.48 45.19 3.68 6.35v-1.03l-3.67-6.35v1.03Zm-21.95-38.43v.4l9.14 15.83V70.8L154 55.55l-.34.06Z"/>
  <path fill="#B659DD" d="m150.66 48.77-1.94-3.36-.54.1 1.94 3.35.54-.1Zm24.94 44.24 3.68 6.35v-1.03l-3.67-6.35v1.03Zm-21.62-37.46 8.81 15.26v-1.03l-8.27-14.32-.54.1Z"/>
  <path fill="#B759DD" d="m175.6 91.98 3.68 6.35V97.3l-3.67-6.35v1.03Zm-21.08-36.52 8.27 14.32v-1.03l-7.73-13.38-.54.1Zm-3.32-6.79-1.94-3.36-.54.1 1.94 3.35.53-.1Z"/>
  <path fill="#B859DD" d="m151.74 48.57-1.94-3.36-.54.1 1.94 3.36.54-.1Zm23.86 42.37 3.68 6.36v-1.03l-3.67-6.36v1.03Zm-20.54-35.58 7.73 13.38V67.7l-7.18-12.45-.55.1Z"/>
  <path fill="#B958DC" d="M157.59 58.62a2.07 2.07 0 0 1-.3-1.19v-.27l-1.15-1.99-.54.1 7.19 12.44v-1.03l-2.62-4.53-2.58-3.53Zm18.01 31.29 3.68 6.36v-1.04l-3.67-6.35v1.03Zm-23.32-41.44-1.94-3.36-.54.1 1.94 3.36.54-.1Z"/>
  <path fill="#BA58DC" d="m160.97 63.24-.8-1.1 2.62 4.54v-.36l.2-.33-1.8-3.12-.22.37Zm14.63 25.64 3.68 6.36V94.2l-3.67-6.36v1.03Zm-18.3-32.75-.61-1.05-.54.1 1.15 1.99v-1.04Zm-4.48-7.75-1.94-3.36-.54.1 1.94 3.36.54-.1Z"/>
  <path fill="#BB58DC" d="m157.3 55.1-.07-.11-.54.1.6 1.05V55.1Zm3.89 7.77 1.8 3.12.3-.51-1.8-3.12-.3.51Zm14.41 24.98 3.68 6.36v-1.04l-3.67-6.35v1.03Zm-22.24-39.57-1.94-3.35-.54.09 1.94 3.36.54-.1Z"/>
  <path fill="#BC57DC" d="m161.49 62.36 1.8 3.12.3-.51-1.8-3.12-.3.51Zm-4.19-7.39h-.07l.07.13v-.13Zm18.3 31.86 3.68 6.35v-1.03l-3.67-6.36v1.04ZM153.9 48.2l-1.94-3.37-.54.1 1.94 3.36.54-.1Z"/>
  <path fill="#BD57DC" d="m154.44 48.09-1.94-3.36-.54.1 1.94 3.35.54-.1Zm7.34 13.76 1.8 3.12.3-.52-1.8-3.1-.3.5ZM175.6 85.8l3.68 6.35V91.1l-3.67-6.35v1.03Z"/>
  <path fill="#BE57DC" d="m154.98 48-1.94-3.36-.54.1 1.94 3.35.54-.1Zm20.62 36.76 3.68 6.35v-1.03l-3.67-6.36v1.04Zm-13.51-23.42 1.8 3.11.3-.5-1.8-3.12-.3.51Z"/>
  <path fill="#BF56DB" d="m175.6 83.72 3.68 6.36v-1.04l-3.67-6.35v1.03ZM155.52 47.9l-1.94-3.35-.54.09 1.94 3.36.54-.1Zm6.88 12.93 1.79 3.11.3-.5-1.8-3.12-.3.51Z"/>
  <path fill="#C056DB" d="m156.06 47.8-1.94-3.35-.54.1 1.94 3.36.54-.1Zm6.63 12.52 1.8 3.1.3-.5-1.8-3.12-.3.52ZM175.6 82.7l3.68 6.35v-1.03l-3.67-6.36v1.04Z"/>
  <path fill="#C156DB" d="m175.6 81.66 3.68 6.36v-1.04l-3.67-6.35v1.03Zm-19-33.95-1.94-3.36-.54.1 1.94 3.35.54-.09Zm6.39 12.09 1.8 3.12.3-.51-1.8-3.12-.3.51Z"/>
  <path fill="#C255DB" d="m175.6 80.64 3.68 6.35v-1.03l-3.67-6.36v1.04ZM163.3 59.3l1.79 3.1.3-.5-1.8-3.12-.3.51Zm-6.16-11.69-1.94-3.35-.54.1 1.94 3.35.54-.1Z"/>
  <path fill="#C355DB" d="m175.6 79.6 3.68 6.36v-1.04l-3.67-6.35v1.03Zm-12.01-20.82 1.8 3.12.3-.51-1.8-3.12-.3.51Zm-5.91-11.26-1.94-3.36-.54.1 1.94 3.35.54-.1Z"/>
  <path fill="#C455DA" d="m158.22 47.43-1.94-3.36-.54.1 1.94 3.36.54-.1Zm5.67 10.84 1.8 3.12.3-.51-1.8-3.12-.3.51Zm11.71 19.79v.5l3.68 6.36v-1.03l-3.49-6.04-.18.21Z"/>
  <path fill="#C554DA" d="m158.76 47.33-1.94-3.36-.54.1 1.94 3.35.54-.1Zm5.56 10.22-.13.21 1.8 3.12.3-.51-1.82-3.15c-.04.12-.1.22-.15.33Zm11.47 20.3 3.49 6.04v-1.03l-3.13-5.42-.36.41Z"/>
  <path fill="#C654DA" d="m159.3 47.23-1.94-3.35-.54.1 1.94 3.35.54-.1Zm5.17 9.98 1.82 3.15.3-.5-1.94-3.37c-.03.25-.08.5-.18.72Zm11.68 20.23 3.13 5.41v-1.02l-2.78-4.8-.35.4Z"/>
  <path fill="#C754DA" d="m176.5 77.03 2.78 4.8V80.8l-2.42-4.19-.36.42Zm-16.65-29.9-1.94-3.35-.54.1 1.93 3.35.55-.1Zm4.81 9.05-.01.31 1.94 3.37.3-.52-2.23-3.85v.7Z"/>
  <path fill="#C853DA" d="m160.38 47.04-1.93-3.36-.55.1 1.94 3.36.54-.1Zm16.48 29.58 2.42 4.18v-1.03l-2.06-3.56-.36.41Zm-12.2-21.13 2.23 3.86.3-.51-2.53-4.38v1.03Z"/>
  <path fill="#C953D9" d="M164.66 53.66v.8l2.53 4.38.3-.51-2.7-4.69-.13.02Zm12.56 22.54 2.06 3.57v-.67l.12-.14-1.83-3.17-.35.41Zm-16.3-29.25L159 43.59l-.54.1 1.93 3.35.54-.1Z"/>
  <path fill="#CA53D9" d="m164.78 53.64 2.71 4.68.2-.34.1-.18-2.47-4.26-.53.1Zm12.8 22.15 1.82 3.17.36-.42-1.83-3.17-.35.42Zm-16.11-28.93-1.95-3.36-.53.1 1.93 3.35.55-.1Z"/>
  <path fill="#CB52D9" d="m177.93 75.37 1.83 3.17.35-.42-1.83-3.17-.35.42Zm-12.6-21.83 2.46 4.26a4 4 0 0 0 .25-.6l-2.17-3.75-.54.09ZM162 46.75l-1.93-3.35-.55.09 1.94 3.36.54-.1Z"/>
  <path fill="#CC52D9" d="m162.54 46.66-1.94-3.36-.53.1 1.93 3.36.54-.1Zm15.75 28.3 1.82 3.17.36-.42-1.83-3.16-.35.4Zm-12.42-21.51 2.16 3.75c.08-.24.14-.49.17-.74l-1.8-3.1-.53.09Z"/>
  <path fill="#CD52D9" d="m178.64 74.54 1.83 3.17.36-.41-1.83-3.17-.36.41ZM166.4 53.35l1.8 3.12c.03-.21.04-.42.04-.63v-.34l-1.3-2.24-.54.1Zm-3.31-6.78-1.95-3.36-.54.1 1.94 3.35.55-.1Z"/>
  <path fill="#CE51D9" d="m166.95 53.25 1.3 2.25v-1.04l-.76-1.3-.54.1ZM179 74.13l1.83 3.17.35-.41-1.82-3.17-.36.41Zm-15.37-27.67-1.94-3.35-.54.1 1.94 3.35.54-.1Z"/>
  <path fill="#CF51D8" d="m164.17 46.38-1.94-3.36-.54.1 1.94 3.35.54-.1Zm11.43 20.63.92.76-.91-1.58v.82Zm3.76 6.71 1.82 3.16.36-.4-1.83-3.18-.35.42Zm-11.87-20.57.75 1.3v-1.02l-.21-.37-.54.1Z"/>
  <path fill="#D051D8" d="M168.24 53.44v-.41l-.21.03.21.38Zm-3.54-7.16-1.93-3.36-.54.1 1.94 3.36.54-.1Zm10.9 19.92.92 1.57 1.15.96-2.06-3.57v1.03Zm4.11 7.1 1.83 3.17.36-.42-1.83-3.17-.36.42Z"/>
  <path fill="#D150D8" d="m165.25 46.18-1.94-3.36-.54.1 1.94 3.35.54-.1Zm14.82 26.7 1.83 3.17.36-.41-1.83-3.17-.36.41Zm-4.47-7.72 2.07 3.56 1.15.97-3.21-5.56v1.03Z"/>
  <path fill="#D250D8" d="m175.6 64.12 3.22 5.56 1.15.97-4.36-7.55v1.02Zm4.82 8.35 1.83 3.17.36-.41-1.83-3.17-.36.41Zm-14.63-26.39-1.94-3.35-.54.1 1.94 3.35.54-.1Z"/>
  <path fill="#D350D8" d="m166.33 46-1.94-3.36-.54.1 1.94 3.35.54-.1Zm13.64 24.65 1.15.95-5.51-9.53v1.03l4.35 7.55Zm.82 1.4 1.82 3.17.36-.41-1.83-3.17-.35.41Z"/>
  <path fill="#D44FD7" d="m175.6 62.06 5.52 9.54.03.03-.01.01 1.83 3.17.35-.41-7.71-13.36v1.02Zm-8.73-16.16-1.94-3.36-.54.1 1.94 3.35.54-.1Z"/>
  <path fill="#D54FD7" d="m167.4 45.8-1.93-3.36-.54.1 1.94 3.35.54-.1Zm8.2 15.24 7.72 13.36.36-.41-8.07-13.98v1.03Z"/>
  <path fill="#D64FD7" d="M167.95 45.7 166 42.35l-.54.1 1.93 3.35.55-.1ZM175.6 60l8.09 14 .36-.41-8.43-14.6V60Z"/>
  <path fill="#D74ED7" d="M179.3 64.97v-.64l-3.7-6.4v1.04l8.44 14.6.35-.42-4.37-7.58-.72-.6Zm-10.81-19.36-1.94-3.36-.54.1 1.94 3.35.54-.09Z"/>
  <path fill="#D84ED7" d="m175.6 57.94 3.7 6.39v-1.04l-3.7-6.38v1.03Zm4.42 7.63 4.38 7.58.35-.4-3.58-6.22-1.15-.96ZM169.03 45.5l-1.94-3.35-.54.1 1.94 3.36.54-.1Z"/>
  <path fill="#D94ED6" d="m181.17 66.54 3.58 6.2.36-.4-2.8-4.85-1.14-.95Zm-11.6-21.12-1.94-3.36-.54.1 1.94 3.35.54-.1Zm6.03 11.49 3.7 6.39v-1.04l-3.7-6.38v1.03Z"/>
  <path fill="#DA4DD6" d="m170.1 45.32-1.93-3.35-.54.1 1.94 3.35.54-.1Zm5.5 10.56 3.7 6.38v-1.03l-3.7-6.38v1.03Zm6.71 11.62 2.8 4.83.35-.41-2-3.47-1.15-.96Z"/>
  <path fill="#DB4DD6" d="m183.46 68.45 2 3.46.36-.4-1.2-2.1-1.16-.96Zm-12.81-23.22-1.94-3.36-.54.1 1.94 3.35.54-.09Zm4.95 9.62 3.7 6.39V60.2l-3.7-6.38v1.03Z"/>
  <path fill="#DC4DD6" d="m175.6 53.82 3.7 6.38v-1.03l-3.7-6.38v1.03Zm9.01 15.59 1.21 2.1.36-.41-.42-.73-1.15-.96Zm-13.42-24.28-1.94-3.36-.54.1 1.94 3.35.54-.1Z"/>
  <path fill="#DD4CD6" d="m171.73 45.03-1.94-3.35-.54.1 1.94 3.35.54-.1Zm14.03 25.34.42.72.18-.22-.6-.5ZM175.6 52.78l3.7 6.39v-1.04l-3.7-6.38v1.03Z"/>
  <path fill="#DE4CD6" d="m172.27 44.94-1.94-3.35-.54.1 1.94 3.35.54-.1Zm3.33 6.81 3.7 6.38V57.1l-3.7-6.38v1.03Z"/>
  <path fill="#DF4CD5" d="m172.81 44.84-1.93-3.36-.55.1 1.94 3.36.54-.1Zm2.79 5.88 3.7 6.39v-1.04l-3.7-6.38v1.03Z"/>
  <path fill="#E04BD5" d="m175.6 49.69 3.7 6.38v-1.03l-3.7-6.38v1.03Zm-2.25-4.94-1.94-3.36-.53.1 1.93 3.35.54-.1Z"/>
  <path fill="#E14BD5" d="m173.9 44.65-1.95-3.35-.53.1 1.93 3.35.54-.1Zm1.7 4.01 3.7 6.39V54l-3.7-6.38v1.03Z"/>
  <path fill="#E24BD5" d="m174.43 44.56-1.93-3.35-.55.09 1.94 3.35.54-.1Zm1.17 3.07 3.7 6.38v-1.03l-3.7-6.38v1.03Z"/>
  <path fill="#E34AD5" d="m174.97 44.46-1.94-3.36-.53.1 1.93 3.35.54-.09Zm.63 2.14 3.7 6.39v-1.04l-3.7-6.38v1.03Z"/>
  <path fill="#E44AD4" d="m175.51 44.36-1.94-3.35-.54.1 1.94 3.35.54-.1Zm.09 1.21 3.7 6.38v-1.03l-3.7-6.38v1.03Z"/>
  <path fill="#E54AD4" d="M175.6 44.35v.19l3.7 6.38V49.9l-5.19-8.97-.54.1 1.94 3.35.1-.02Z"/>
  <path fill="#E649D4" d="m179.3 48.86-4.64-8.04-.54.1 5.18 8.97v-1.03Z"/>
  <path fill="#E749D4" d="m179.3 47.82-4.1-7.1-.54.1 4.64 8.04v-1.04Z"/>
  <path fill="#E849D4" d="m179.3 46.8-3.56-6.17-.54.1 4.1 7.1V46.8Z"/>
  <path fill="#E948D3" d="m179.3 45.77-3.02-5.23-.54.1 3.56 6.16v-1.03Z"/>
  <path fill="#EA48D3" d="m179.3 44.73-2.48-4.3-.54.1 3.02 5.23v-1.03Z"/>
  <path fill="#EB48D3" d="m179.3 43.7-1.94-3.36-.55.1 2.48 4.3V43.7Z"/>
  <path fill="#EC47D3" d="m179.3 42.67-1.4-2.42-.54.1 1.93 3.35v-1.03Z"/>
  <path fill="#ED47D3" d="m179.3 41.64-.86-1.5-.54.1 1.4 2.43v-1.03Z"/>
  <path fill="#EE47D3" d="m179.3 40.6-.32-.54-.54.09.86 1.49V40.6Z"/>
  <path fill="#EF46D2" d="m179.3 40-.32.06.32.55V40Z"/>
</svg>
