<svg xmlns="http://www.w3.org/2000/svg" width="267" height="160" fill="none">
  <path fill="#fff" fill-rule="evenodd" d="m72.6 102.18.88-.02-.03.07c4.4-.1 7.18-.55 9-1.23a3 3 0 0 0 1.2-.68.74.74 0 0 0 .22-.46v-.1c0-.13-.06-.22-.16-.32a1.85 1.85 0 0 0-.26-.23l-.03-.03a3.4 3.4 0 0 0-.32-.33l-.14-.12-.03-.05a.17.17 0 0 0-.03-.05.65.65 0 0 1-.13-.26c0-.3.36-.75 1.59-1.56 4.88-3.6 5.56-7.88 6.18-13.43a26.82 26.82 0 0 0 9.87-5.1 12.8 12.8 0 0 0 3.62-4.47c2.91-5.87-.68-10.6-11.33-10.28-2.49.1-4.62.42-7.05.87-4.01.75-8.06 1.43-12.17 1.85-.94.1-1.87.2-2.81.26-2.72.23-6.8.55-9.48.2-7.54-1.07-8.06-9.25 3.59-6.2a89.4 89.4 0 0 0 8.7 1.65v-.02c2.18.29 4.36.45 6.57.41 2.65-.03 5.11-.13 7.5-1.4 3.54-1.84 3.21-4.57-2.42-4.89-6.03-.1-10.29-.67-11.65-2.4-.55-.75-.58-1.72 0-2.95v-.04c.65-1.33 1.98-2.95 4.14-4.96l-.44.33c-.82.6-2.35 1.72-3.7 3.01-1.2 1.14-2.23 2.4-2.46 3.54-.13 1.2.75 2.14 2.46 2.89v-.02c1.88.8 4.71 1.41 8.22 1.83 5.7.62 4.92 2.53 1.36 3.18-3.4.62-6.57.46-9.58-.03v.03c-2.5-.4-4.92-1.04-7.16-1.63l-.31-.09c-10.3-3.34-14.7-.29-13.82 3.28 1.13 4.6 7.12 5.55 10.94 5.68 2.84.1 6.27-.13 10.35-.62 2.85-.32 6.02-.78 9.52-1.36 4.07-.65 9.96-1.53 13.91-.36 8.22 2.4 6.25 10.7-2.1 15.22-1.43.74-2.1 1-4.14 1.75.19-3.77.06-6.75-.36-7.92a4.14 4.14 0 0 0-2.33-2.66c-.97-.42-2.33-.65-3.33-.78-2.4-.32-6.6-.58-11.17-.68v-.03c-7.28-.16-15.47.06-18.73 1.07-.59.13-1.17.36-1.85.75a7.32 7.32 0 0 0-3.82 5.54c-.7 6.59 3.27 11.72 7.96 15.7 2.14 1.82 4.08 3.57 3.2 5.07-.13.24-.3.4-.47.55-.18.17-.34.32-.4.55-.03.13 0 .26.07.36.03 0 .03.03.03.03.71 1.2 6.67 2.1 12.17 2.1l.97-.01Zm.88-46.52-.03-.02v-1.81l.03.04v1.79Zm0 6.47v.01h-.06.06Zm-1.62-17.16c0 .9.75 1.62 1.62 1.62a1.62 1.62 0 0 0 0-3.24c-.9 0-1.62.74-1.62 1.62Zm10.17 28c1.1-.1 2.07-.2 2.84-.3l-.03.04.5-.08c.3-.04.54-.08.8-.08.42 0 .84.1 1.35.42.65.39 1.17 1 1.53 2 .61 1.76.58 6.1.12 9.87-.51 4.12-1.32 7.04-4.62 9.8-.77.64-1.57 1.19-2.46 1.64v-8.52h-.03c2.52-.16 4.88-.97 5.37-2.24a14.3 14.3 0 0 1-5.34 1.5V72.96h-.03Zm0 0c-1.39.1-2.96.2-4.73.26v-.04l-.97.04c-.32 0-.65.01-.97.03v.03a391.68 391.68 0 0 1-4.6.07 122.18 122.18 0 0 1-15.4-.78c-.68 0-1.2.16-2.07.65-2.88 1.68-3.43 4.64-2.91 8.2.7 5 5.4 9.77 9.45 12.36a27.01 27.01 0 0 0 13.65 4.27c.63.01 1.26 0 1.88-.05v.03c.65-.03 1.3-.13 1.94-.22 1.68-.3 3.3-.78 4.76-1.53v-.01l-.03.01v-8.53c-1.7.1-3.44-.13-4.73-.71V87a3.6 3.6 0 0 1-.61-.35 23.65 23.65 0 0 0 .61.1v.03c1.65.26 3.24.35 4.76.22h-.03V72.97Zm-6.67 19.88v.04c.55 1.03 1.2 1.97 1.94 2.85.2.23.39.42.62.65-.17-.27-.32-.55-.47-.82l-.15-.28v-.04a26.17 26.17 0 0 1-1.94-4.6c-1.72-5.39-1.75-11-1.04-16.68-.32.58-.6 1.3-.84 2.11-.85 3.03-.98 7.45 0 11.65a21.19 21.19 0 0 0 1.88 5.12Z" clip-rule="evenodd"/>
  <path fill="#fff" d="M155.58 78.97c-6.5 0-11.75 5.16-11.75 11.71a11.66 11.66 0 0 0 11.65 11.55c6.28 0 11.81-4.9 11.81-11.32A11.73 11.73 0 0 0 155.61 79l-.03-.04Zm0 5.1a6.55 6.55 0 0 1 4.53 11.15 6.45 6.45 0 0 1-11.07-4.57c0-.91.16-1.79.52-2.56a6.4 6.4 0 0 1 5.99-4l.03-.03Zm21.26 17.84V79.28h-5.21v22.61h5.2Zm-2.65-32.45a3.25 3.25 0 0 0-.07 6.5 3.26 3.26 0 0 0 3.27-3.25c0-1.85-1.4-3.25-3.2-3.25Zm27.44 32.45V89.47c0-1.72-.16-3.11-.46-4.12a7.42 7.42 0 0 0-1.68-2.95 9.42 9.42 0 0 0-7.4-3.38 9.16 9.16 0 0 0-7.42 3.5c-1.65 2.02-2.14 4.06-2.14 6.63v12.81h5.25V90.65c0-2.27.03-4.8 2.33-6a4.2 4.2 0 0 1 4 .03c.62.36 1.1.81 1.43 1.36.81 1.5.84 3.31.84 4.96v10.97h5.21l.04-.06Zm16.37 0v-5.1c-3.53 0-4.76-1-4.76-4.64V84.4H218v-5.1h-4.76v-7.94H208v7.94h-3.85v5.1H208v7.72c0 2.43.23 4.8 1.81 6.78 1.65 2.01 4.08 2.98 7.32 2.98h.84l.03.03Zm-87.3-.04V87.8h1.16c15.73 0 16.37-21.21-.32-21.21-1.23 0-2.17.03-2.85.13-1.4.2-2.62.9-3.2 2.23a7.28 7.28 0 0 0-.5 2.96v30h5.7v-.03Zm0-19.53V72.1c9.44-1.04 11.74 10.29 0 10.25Z"/>
  <path fill="#fff" fill-rule="evenodd" d="M119.53 66.6h-5.7v25.25c0 .71-.06 1.36-.22 1.98a4.4 4.4 0 0 1-.62 1.46c-.16.22-.35.39-.55.52a3.1 3.1 0 0 1-1.62.55l-1.39.1h-.51v5.45c1.06-.04 1.94-.07 2.65-.13.71-.07 1.33-.13 1.81-.23a5.82 5.82 0 0 0 2.66-1.23 7.75 7.75 0 0 0 2.75-3.31c.55-1.3.8-3.05.8-5.26V66.61h-.06Z" clip-rule="evenodd"/>
</svg>
