<svg xmlns="http://www.w3.org/2000/svg" width="114" height="40" fill="none">
  <g fill="#fff" clip-path="url(#a)">
    <path d="M107.45 22.93c-.12-.37-.12-.86-.24-1.22-.12-1.1-.73-2.69-.85-3.05.12 0 .12-.24.24-.24.73-.61-.36-1.59-1.09-2.2 0 .12 0 .12 0 0s0-.12 0 0v-6.7h-3.76v2.44c-1.09-.5-2.18-.86-3.27-1.1h-.25v.24s.13.61.25 1.34c.12.61.24.98.36 1.47l.36 1.1c.13.48.61 1.94.73 2.55l-.97 1.1c-.36.49-.6.97-.36 1.46s.73.73 1.45.73c.12.37.37.73.85.98v.12c.12.37.12.6.24.85a1.9 1.9 0 0 1-.72.98 5 5 0 0 1-1.34.85c-.48.12-1.09.25-1.7.25-.6 0-1.09-.13-1.57-.25a2.51 2.51 0 0 1-1.21-.73 4.85 4.85 0 0 1-.85-1.34c-.25-.61-.25-1.22-.25-1.95V9.5h-3.76v11.22c0 1.22.25 2.32.61 3.17a5.64 5.64 0 0 0 4 3.41c.97.25 1.94.37 3.04.37 1.2 0 2.18-.12 3.15-.37a8.4 8.4 0 0 0 1.57-.6c.13.24.37.36.61.36h.12c.12-.25.24-.49.37-.98a5.64 5.64 0 0 0 1.57-2.19c0-.12 0-.12.12-.24v.12c.25.36.49.85.85 1.46.25.49.61 1.1.97 1.83h.25c.24 0 .48-.25.48-.37.49-1.46.24-2.56 0-3.77Zm-6.91-2.8s-.12 0 0 0c-.24.11-.37.11-.49.11s-.24 0-.24-.12c-.12-.12-.24-.12-.24-.24s0-.37.12-.49c.12-.24.36-.49.48-.73l.25-.24c.12.48.24.97.36 1.58-.12 0-.24 0-.24.12Zm-.85-5.25c.36 0 1.21 0 2.06-.12v4.26c-.24.13-.6.25-.85.5-.24-.74-.36-1.47-.48-2.08 0-.37-.6-2.07-.73-2.56Zm1.82 7.31v-.24h.12c0 .12-.12.12-.12.24Zm1.33 4.4c-.12 0-.12-.13-.24-.13.12-.12.24-.12.36-.24-.12.12-.12.24-.12.36Zm3.4-8.54c-.12-.12-.12-.37-.24-.6.12.23.48.48.24.6Zm-.73-.98c0 .13.12.25.12.37l-.12-.12v-.25Zm1.94 9.39c-.12.12-.24.24-.36.24-.37-.73-.73-1.34-.97-1.7-.37-.61-.6-.98-.85-1.47-.12-.12-.12-.24-.24-.24a8.2 8.2 0 0 0 .36-2.56v-.85c.24-.25.48-.49.6-.73.25.6.61 1.95.86 2.92 0 .37.12.86.24 1.22.36.85.6 1.95.36 3.17Zm-52.27-8.9c0-.48-.12-.97-.24-1.46l1.45-2.07c.13.24.25.36.37.6l3.4-1.09a6.19 6.19 0 0 0-1.1-1.95 5.76 5.76 0 0 0-1.21-1.22c-.12-.6-1.58-1.1-2.18-1.1-.13 0-.25-.12-.49-.12-.85-.24-1.82-.36-3.03-.36-.73 0-1.33 0-2.06.12h-.37c-.72 0-1.82.37-2.18.73v.12c-.85.37-1.7.98-2.3 1.59a6.9 6.9 0 0 0-1.7 2.92c-.37 1.1-.6 2.44-.6 3.78 0 1.34.11 2.56.48 3.66a8.5 8.5 0 0 0 1.57 2.92 7.7 7.7 0 0 0 2.8 1.95c1.08.49 2.54.73 4 .73.97 0 1.81-.12 2.66-.24a7.3 7.3 0 0 0 2.3-.73 9.61 9.61 0 0 0 1.95-.98c.6-.36 1.09-.73 1.45-1.22v-6.58h-4.97Zm0 3.3c.12.48.12 1.09.12 1.46 0 .48-.12.6-.24.6s-.49-.24-.97-.97c-.12-.24-.24-.6-.36-.85l-.37-.73h1.7c.12.12.12.24.12.48Zm-2.42-3.3v2.07c-.13-.12-.25-.12-.37-.12-.24 0-.48.25-.73.37-.24.36-.6.73-.84 1.1-.25.24-.49.6-.73.85-.6.73-.85.73-.97.73.12-.61.24-1.22.24-1.7.12-.74.24-1.35.36-1.96.12-.73.37-1.7.49-2.43h.12c.36 0 .49-.86.49-1.1V15s0-.12-.13-.12c.13-.12.37-.36.61-.49.12-.12.24-.12.36-.24.25-.12.61-.37.85-.37h.12l1.58.5c.12.11.49.6.49.72.12.73.36 1.83.36 2.56h-2.3Zm-2.92-5.36c.49-.24 1.1-.37 1.7-.37-.12.25-.24.5-.36.61-.36.61-.6 1.22-.85 2.08a7.3 7.3 0 0 1-.6-2.2c0-.12 0-.12.11-.12Zm6.07.98c-.24.6-.6 1.1-1.21 1.7 0-.24-.25-.73-.37-.97l-.48-1.83c.48.12.97.36 1.33.6.24 0 .49.25.73.5Zm1.21 9.62c-.24.25-.48.37-.85.61-.36.25-.73.37-1.09.49-.48.12-.85.24-1.33.37-.49.12-1.1.12-1.58.12a5.09 5.09 0 0 1-4.12-1.83 5.88 5.88 0 0 1-.97-1.95 8.14 8.14 0 0 1-.37-2.56c0-.98.12-1.83.37-2.56.24-.73.48-1.46.97-1.95l.72-.73c0 .49.13.85.13 1.22.12.73.48 1.46.84 1.95-.12.73-.48 1.95-.6 2.8-.12.61-.24 1.34-.37 1.95-.12.61-.12 1.22-.36 1.83v.12h.12c.37.25.85 0 1.58-.73.24-.24.48-.49.73-.85.24-.37.6-.73.85-1.1a.92.92 0 0 1 .48-.24c.12 0 .12 0 .24.12l.12.12v.24h.25c.12.25.24.5.48.86.12.24.24.6.37.85.48.73.84 1.22 1.2 1.22.5 0 .5-.73.5-.98 0-.36 0-.97-.13-1.46 0-.12 0-.36-.12-.49h1.7l.24 2.56Z"/>
    <path d="M99.2 15.13c0 .85.73 1.7 1.7 1.7s1.7-.73 1.7-1.7c0-.86-.73-1.71-1.7-1.71-.85 0-1.7.85-1.7 1.7ZM54.82 12.8c0 .74-.6 1.35-1.34 1.35-.72 0-1.33-.6-1.33-1.34 0-.73.6-1.34 1.33-1.34.73.12 1.34.6 1.34 1.34ZM14.31 9.03v1.7c0 .13-.12.25-.12.5l-.36 1.1a6.9 6.9 0 0 0-.61 1.45c-.24.5-.36.86-.6 1.35-.13.36-.37.97-.61 1.46-.12.24-.12.36-.25.6-.24.25-.6.37-.85.5-.12 0-.24.12-.36 0a.92.92 0 0 1-.6-.25c-.25-.12-.37-.49-.49-.73a3.89 3.89 0 0 1-.36-1.1c.12-.12.24-.36.36-.48.12-.37.24-.74.24-1.1-.12 0 0-.12 0-.25.12-.24.24-.36.12-.6 0-.13-.12-.25-.24-.25-.24-.12-.73.25-.85.61 0 0 0 .12-.12.24l-.36-.73c0-.12-.12-.12-.12-.24 0 0 0-.12-.13-.12 0-.25-.12-.61-.36-.61h-.12s-.12 0-.12.12c-.12.24 0 .49.12.85.12.25.12.5.24.61-.73-.85-.97-1.22-1.21-1.1h-.12s0 .13-.12.13c-.12.36.24.73.48 1.1.12.12.24.36.24.36s-.12 0-.24-.12c-.36-.25-.73-.37-.97-.12v.24c0 .12.12.24.37.49.24.24.6.48.97.85.24.37.6.37.97.49h.24s.24.6.36.97.37.73.6 1.1c.25.24.37.37.61.49.13.12.37.12.61.12h.12c.12 0 .37 0 .49-.12.12 0 .12-.12.24-.12-.24.6-.73 2.19-.85 3.16 0 .13 0 .37-.12.5l-.97.11c.12.98.36 1.71.73 2.32.12.24.24.36.36.49.12.48.24.97.49 1.34l.12.12h.24c.12 0 .24 0 .24-.12.12 0 .12-.12.25-.12.48.36.97.6 1.57.73.73.24 1.46.24 2.43.24.97 0 1.82-.12 2.54-.37.37-.12.85-.36 1.22-.6h.24s.12 0 .12-.13c0-.12 0-.12.12-.12v-.12l.24-.24c.49-.5.85-1.1 1.22-1.83a7.9 7.9 0 0 0 .36-2.44V9.04h-7.64Zm3.52 11.46a39.8 39.8 0 0 0-.37-1.7l.37.23v1.47Zm0-2.56-.49-.49c0-.24-.12-.37-.12-.6l-.48-.98-.61-3.05s0-.24-.12-.73v-.12h1.94v5.97h-.12Zm-7.04 3.53c.12-1.1.85-3.17.85-3.17 0 .13.12.25.25.25v-.12.12c.12 0 .36-.12.36-.49.12-.24.12-.49.12-.73 0-.25 0-.37-.12-.49.24-.24.73-.73 1.09-.85.36-.25 1.1-.49 1.1-.49.96-.24 1.45.24 1.81.61.12.12.6.73.6.97.13.61.25 1.1.25 1.71.12.61.12 1.22.36 1.95l.37 1.1c0 .85-.24 1.46-.6 1.95l-.37.36a4.62 4.62 0 0 0-1.58-1.1c-.48-.11-1.1-.11-1.45.13-.13 0-.25.12-.25.12 0-.12-.12-.24-.12-.24a15.4 15.4 0 0 1-.36-1.22l-2.3.36c-.13-.36 0-.6 0-.73Zm.49 4.63c0 .13 0 .13 0 0h-.12a.93.93 0 0 1-.25-.6l.49.48c0 .12-.12.12-.12.12Zm3.4-1.95a2.54 2.54 0 0 1-.73-.48l-.25-.25c.13 0 .13-.12.25-.12.36-.24.85-.24 1.33-.12.49.12.97.49 1.46.97-.37.13-.73.25-1.1.25-.36-.12-.6-.12-.97-.25Zm67.91-4.74c.6-.13 1.1-.38 1.58-.62.97-.6 1.7-1.46 2.06-2.56.24-.6.24-1.22.24-1.83 0-.85-.12-1.58-.36-2.19a5.5 5.5 0 0 0-1.22-1.7 5.58 5.58 0 0 0-2.06-1.1 10.3 10.3 0 0 0-2.9-.37h-8.86v7.8c0-.24-.12-.49-.12-.73 0-.6-.25-.85-.49-.85h-.12c-.24.12-.24.48-.24.85v1.22l-.12-.12a1.68 1.68 0 0 0-.73-.25c-.12 0-.24 0-.36.13-.13.12-.13.24-.13.36 0 .24.25.37.37.49s.24.12.24.24c.24.37.49.61.73.98.12.12.24.24.36.24.12.12.24.12.37.24v.86c0 .12-.13.24-.13.24h-.48c-.24-.12-.6-.24-.85-.36-.36-.25-.85-.74-1.1-.86 0-.24-.11-.36-.11-.6-.12-.5-.49-1.35-.6-1.35l-.5-2.68c0-.36-.12-.6-.24-.97-.12-.25-.48-1.34-.72-1.71 0-.12-.13-.12-.13-.24-.12-.25-.24-.5-.36-.5s-.12 0-.24.13c-.12.37-.37.85-.49 1.34-.12.37-.24.85-.48 1.22-.24.49-.49 1.1-.73 1.58-.24.5-.48.98-.6 1.47l-.61 1.58c0 .12 0 .12-.12.12 0 0 0 .13-.13.13l-.24.24c-.12.12-.12.24-.24.24-.24.12-.36.37-.49.49-.24.24-.36.49-.36.73-.12.37-.12.73 0 .98.12.36.24.73.6 1.1 0 .36-.11.6-.11.85-.13.6-.25 1.21-.49 1.82 0 .13-.12.25-.12.37-.12.24-.24.49-.36.85-.37.86-.85 1.95-.13 2.2h.25c.24 0 .36-.13.6-.37l.37-.36c.36-.25.6-.5.85-.74l.36-.36c.36-.37.73-.73 1.21-1.1v1.1h3.64v-.98l.85.86c.6.73 1.33 1.34 2.06 1.58h.24s.13 0 .13-.12c0 0 0-.12.12-.12.12-.37 0-.73-.25-1.1a20.44 20.44 0 0 1-1.81-4.63c-.13-.61-.25-1.22-.37-1.95l.85.6c.36.25.6.37.97.37.24 0 .49 0 .6-.12v5.73h3.77v-6.82h4.36l4.13 6.82h4.24l-4.85-7.8Zm-20.13 7.3-.37.37-.72.73-.37.37c-.24.24-.36.36-.48.24-.37-.12 0-1.1.36-1.83.12-.36.24-.6.36-.85 0-.12.13-.25.13-.37.24-.6.36-1.34.48-1.95 0-.24.12-.48.12-.73.97.49 1.58.85 1.82.98v.36c0 .12 0 .25.12.49 0 .12.12.24.12.24v.73a4.4 4.4 0 0 0-1.57 1.22Zm6.06-4.26c.49 1.83 1.1 3.41 1.82 4.75.24.49.24.73.24.98h-.12a5.45 5.45 0 0 1-1.94-1.47c-.36-.36-.6-.73-.97-.97v-2.44h-1.33a4.29 4.29 0 0 0-1.22-.24h-.84c-.25-.13-.49-.13-.61-.25-.24-.12-.36-.24-.49-.24a1.5 1.5 0 0 1-.48-.37 2.65 2.65 0 0 1-.49-.6c-.12-.37-.24-.61.37-1.1.24-.25.36-.25.48-.25s.25 0 .37-.36c.12-.12.12-.37.12-.49 0-.37-.12-.6-.24-.73.24-.24.84-.73 1.09-.85.36-.25 1.33-.61 1.33-.61 1.1-.13 1.7.24 1.94.48.12.25.49.86.49 1.22 0 .13 0 .25.12.37l.12.6.12.5v.24c-.12.49 0 1.1.12 1.83Zm13.46-5.97c-.24.24-.6.36-.97.6a4.5 4.5 0 0 1-1.45.25H74.7v-5.36h4.73c1.09 0 1.82.24 2.42.6.6.37.85 1.1.85 1.96 0 .36 0 .73-.24 1.1 0 .36-.24.6-.49.85ZM36.75 9.03v6.95a6.83 6.83 0 0 0-1.34-2.32c.25-.48 0-1.1 0-1.34l-.36-.73c-.12-.24-.12-.37-.24-.37s-.25.37-.12.74v.36h-.13c-.12 0-.12-.24-.24-.36a1.28 1.28 0 0 0-.6-.74c-.13.13.12.74.48 1.22v.13h-.12l-.24-.25c-.13-.36-.25-.85-.37-1.1 0-.12-.12-.12-.12-.24-.12-.24-.12-.36-.36-.36-.12 0-.12 0-.25.12-.12.24-.24.6-.36 1.1 0 .12-.12.24-.12.48-.24 0-.85.49-1.1.73 0 0-.11 0-.11.13 0-.13.12-.37.36-.61a.93.93 0 0 0 .24-.5c-.12 0-.24.25-.36.37 0 0 0 .13-.12.13l-.12.12c-.12.24-.37.6-.61.6v-.36c0-.24-.36-.49-.48-.49-.13 0-.13 0-.25.13-.12.12 0 .24 0 .36s.12.25.12.37v.85c0 .12.13.37.13.49 0 0-.61.85-.97 1.46V9.03h-3.76v11.21c0 1.22.24 2.32.6 3.17a5.64 5.64 0 0 0 4 3.41c.97.25 1.94.37 3.04.37 1.2 0 2.18-.12 3.15-.37a6.4 6.4 0 0 0 2.55-1.34 7.58 7.58 0 0 0 1.7-2.19c.36-.85.6-1.95.6-3.17V9.03h-4.12Zm-2.3 5h.6c.12.12.97 1.46 1.1 2.56 0 .48-.25.36-.5.36h-.96c0-.24 0-.12-.13-.36 0-.25-.36-.73-.48-.98l-.12-1.7a.9.9 0 0 1 .48.12Zm-3.28-.61c0-.12.24-.24.36-.37.12-.12.37-.24.37-.36v.12c-.13.24-.13.37-.25.6 0 0-.12 0-.12.13-.12 0-.24.12-.24.12h-.12v-.24Zm-2.06 2.56c.24-.61.6-1.34.85-1.7h.48c.24 0 .49 0 .6-.13.13-.12.25-.12.37-.24-.12.36-.36.73-.48 1.1-.13.36-.37.72-.49 1.21-.12.12-.12.37-.24.49h-.24c-.25 0-.37 0-.73-.24-.12-.13-.12-.25-.12-.5Zm0 5.85v.49c-.12-.13-.12-.25-.12-.37-.25-.6-.25-1.22-.25-1.95v-3.05c.37.37.73.5 1.1.5h.24c-.12.23-.61 1.82-.73 2.67-.24.61-.24 1.22-.24 1.7Zm5.09 2.2c-.49.11-1.1.24-1.7.24-.6 0-1.09-.13-1.57-.25-.25-.12-.37-.12-.61-.24.12-.12.12-.25.12-.37.12-.12.12-.24.24-.36 0-.13.12-.13.12-.25.37-.48.61-.97 1.1-1.22.24-.12.72-.24.97-.12.6.12 1.2.73 1.7 1.22.24.25.36.49.6.61-.12.37-.48.61-.97.73Zm1.46-.86-.61-.61a4 4 0 0 0-1.82-1.34 1.43 1.43 0 0 0-1.21.12c-.6.24-.97.85-1.22 1.34 0 .12-.12.12-.12.25-.12.12-.12.24-.24.36 0 .12-.12.24-.12.24a3.22 3.22 0 0 1-.73-.6c-.12-.5-.12-.86-.12-1.1 0-.61 0-1.1.12-1.7.12-.86.6-2.32.73-2.69 0 .12 0 .12.12.24h.12c.24 0 .37-.6.37-.97 0-.12 0-.37-.13-.37.13-.12.61-.6.97-.73.25-.24.85-.36.85-.36.73-.25 1.1 0 1.34.24l.12.12c.12.12.48.61.48.86.13.48.13.85.25 1.34.12.48.12 1.1.24 1.58a47 47 0 0 0 1.1 3.17c-.25.24-.37.37-.5.6Zm1.09-3.3c0 .74-.12 1.47-.25 1.96 0 .12-.12.24-.12.36a38.1 38.1 0 0 1-1.09-2.92 6.27 6.27 0 0 1-.24-1.46v-.37c.24 0 .6.12.85.12.48 0 .73-.12.85-.24v-.12 2.68Z"/>
    <path d="M35.05 14.52c0 .73-.6 1.34-1.34 1.34a1.34 1.34 0 0 1 0-2.68c.61 0 1.34.6 1.34 1.34Zm-17.46 0c0 .85-.73 1.7-1.7 1.7s-1.7-.73-1.7-1.7c0-.86.73-1.71 1.7-1.71.85 0 1.7.73 1.7 1.7ZM65 15.98c0 .85.73 1.7 1.7 1.7s1.7-.73 1.7-1.7c0-.86-.73-1.7-1.7-1.7S65 15 65 15.97Z"/>
    <path d="M113.88 35.72H74.34v-2.07h37.36V2.82H2.3v30.83h36.75v2.07H.12V.62h113.76v35.1Z"/>
    <path d="M49.48 37.06c0 1.46-.73 2.07-2.18 2.07-1.21 0-1.94-.48-2.06-1.34h1.2c.13.37.37.61.86.61.85 0 .97-.48.97-1.1v-.48c-.37.49-.73.73-1.34.73-1.09 0-1.82-.85-1.82-2.2 0-1.33.73-2.19 1.95-2.19.6 0 .97.25 1.33.73v-.6h1.1v3.77Zm-3.15-1.95c0 .73.36 1.22.97 1.22.6 0 .97-.49.97-1.34 0-.73-.37-1.22-.97-1.22-.6.12-.97.61-.97 1.34Zm7.03-.97h-.48c-.85 0-1.22.6-1.22 1.46v2.07h-1.2v-4.39h1.2v.86c.25-.61.73-.98 1.46-.98h.24v.98Zm4.74 1.09c0 1.47-.86 2.32-2.31 2.32-1.34 0-2.3-.97-2.3-2.32 0-1.46.96-2.31 2.3-2.31 1.33 0 2.3.97 2.3 2.31Zm-3.4 0c0 .86.36 1.47 1.09 1.47.6 0 1.09-.5 1.09-1.47 0-.85-.37-1.46-1.1-1.46-.6.12-1.08.61-1.08 1.46Zm8.24 2.2h-1.21v-.61c-.36.49-.85.73-1.46.73-.97 0-1.57-.49-1.57-1.58v-2.93h1.21v2.56c0 .6 0 .98.73.98s.97-.61.97-1.22v-2.32h1.21v4.39h.12ZM65 33.65c.37-.49.85-.6 1.34-.6 1.21 0 1.94.97 1.94 2.3 0 1.35-.73 2.32-1.94 2.32-.6 0-1.1-.24-1.34-.6v2.06h-1.2v-5.97h1.08v.49H65Zm.13 1.58c0 .86.36 1.35 1.09 1.35.6 0 1.09-.5 1.09-1.35 0-.85-.37-1.34-1.1-1.34-.72 0-1.08.5-1.08 1.34Z"/>
  </g>
  <defs>
    <clipPath id="a">
      <path fill="#fff" d="M0 0h114v39H0z" transform="translate(0 .5)"/>
    </clipPath>
  </defs>
</svg>
