<svg xmlns="http://www.w3.org/2000/svg" width="267" height="160" fill="none">
  <g clip-path="url(#a)">
    <path fill="#fff" d="M103.85 53.82h6.02l6.34 11.6 6.27-11.6h5.89V76.7h-5.89V63.6l-4.74 8.7h-3.27l-4.73-8.7v13.1h-5.89V53.82Zm36.6 23.31a11 11 0 0 1-3.43-.52 7.67 7.67 0 0 1-4.7-4.45 10.5 10.5 0 0 1-.7-3.95v-.66c0-1.41.23-2.66.7-3.72a7.48 7.48 0 0 1 1.89-2.69 8.23 8.23 0 0 1 2.8-1.63 10.4 10.4 0 0 1 3.44-.56c1.22 0 2.37.19 3.43.56 1.07.37 2 .92 2.81 1.63a7.5 7.5 0 0 1 1.9 2.69 9.4 9.4 0 0 1 .69 3.72v.66c0 1.48-.23 2.78-.69 3.92a7.68 7.68 0 0 1-4.7 4.44c-1.07.37-2.22.56-3.44.56Zm0-4.18c1.18 0 2.08-.43 2.71-1.28.64-.85.95-2 .95-3.46v-.66a5 5 0 0 0-.95-3.17 3.21 3.21 0 0 0-2.7-1.24c-1.19 0-2.1.41-2.72 1.24a5 5 0 0 0-.95 3.17v.66c0 1.5.32 2.66.95 3.5a3.21 3.21 0 0 0 2.71 1.24Zm21.46 4.18a7.03 7.03 0 0 1-3.36-.85 6.36 6.36 0 0 1-1.21-.88c-.33-.35-.6-.7-.82-1.05v2.35h-4.64V53.82h5.03v7.75a6.1 6.1 0 0 1 5-2.62c2.44 0 4.3.72 5.56 2.16 1.27 1.44 1.9 3.59 1.9 6.44v.66c0 1.48-.18 2.77-.53 3.89a7.54 7.54 0 0 1-1.5 2.77 6.53 6.53 0 0 1-2.35 1.7c-.92.37-1.94.56-3.08.56Zm-1.2-4.15c1 0 1.82-.4 2.48-1.21.67-.8 1.01-2 1.01-3.56v-.66c0-1.5-.32-2.61-.98-3.33a3.14 3.14 0 0 0-2.51-1.11 3.9 3.9 0 0 0-2.72 1c-.72.66-1.08 1.64-1.08 2.95v1.64c0 1.37.36 2.43 1.08 3.17a3.7 3.7 0 0 0 2.72 1.1Zm11.61-13.6h5.03V76.7h-5.03V59.38Zm2.51-1.64c-.93 0-1.66-.23-2.19-.71-.5-.5-.75-1.14-.75-1.9s.25-1.38.75-1.86c.53-.5 1.26-.76 2.2-.76.93 0 1.65.26 2.15.76.52.48.79 1.1.79 1.86s-.27 1.4-.79 1.9c-.5.48-1.22.71-2.16.71Zm12.07 19.39c-1.97 0-3.49-.57-4.53-1.7-1.05-1.13-1.57-2.86-1.57-5.17V59.38h5.03v10.1c0 1.13.23 2 .69 2.58.48.6 1.24.89 2.28.89 1.14 0 1.97-.33 2.49-.99.55-.67.82-1.5.82-2.48v-10.1h5.03V76.7h-4.64v-2.35a5.43 5.43 0 0 1-2.06 1.96c-.94.55-2.11.82-3.53.82Zm21.02 0c-1.42 0-2.64-.14-3.66-.43-1-.3-1.83-.7-2.49-1.2a5.2 5.2 0 0 1-2.02-4.03h5.03c.13.5.42.93.85 1.28.44.35 1.2.52 2.29.52 1.11 0 1.9-.15 2.39-.46.5-.3.75-.7.75-1.2 0-.2-.06-.38-.17-.53-.1-.17-.31-.33-.62-.46a5.47 5.47 0 0 0-1.17-.42c-.5-.13-1.15-.26-1.93-.4a23.7 23.7 0 0 1-2.71-.58 8.63 8.63 0 0 1-2.23-.95 4.83 4.83 0 0 1-1.47-1.57 4.9 4.9 0 0 1-.52-2.38c0-.77.17-1.48.52-2.13.35-.65.85-1.22 1.5-1.7a7.74 7.74 0 0 1 2.42-1.11c.96-.28 2.04-.43 3.24-.43 1.35 0 2.48.17 3.4.5.94.32 1.7.76 2.29 1.3a4.97 4.97 0 0 1 1.3 1.8c.29.68.46 1.36.53 2.06h-5.04a2.1 2.1 0 0 0-.85-1.3 2.65 2.65 0 0 0-1.63-.5c-1 0-1.7.15-2.1.46-.36.3-.55.66-.55 1.08 0 .46.3.82.92 1.08.6.24 1.58.44 2.9.62a20 20 0 0 1 2.69.55c.85.24 1.59.58 2.22 1.02a4.5 4.5 0 0 1 1.54 1.6c.37.63.55 1.4.55 2.32 0 1.66-.7 3-2.1 4.05-1.36 1.03-3.39 1.54-6.07 1.54Z"/>
    <path fill="#ADADAD" d="m102.42 102.7 5.99-5.2c.45-.38.83-.73 1.11-1.04.3-.31.54-.6.7-.88.18-.28.3-.56.35-.83.07-.27.1-.56.1-.88 0-.84-.24-1.53-.74-2.07a2.62 2.62 0 0 0-2.06-.84c-1.04 0-1.84.29-2.4.86a3.24 3.24 0 0 0-.83 2.37h-2c0-.72.11-1.4.36-2a4.66 4.66 0 0 1 2.73-2.64 5.7 5.7 0 0 1 2.14-.38c.76 0 1.44.12 2.04.36a4.12 4.12 0 0 1 2.45 2.46 5.32 5.32 0 0 1 .1 3.32 5.1 5.1 0 0 1-.67 1.26c-.27.4-.6.79-1 1.17-.4.37-.82.76-1.3 1.16l-4.46 3.7h7.87v1.75h-10.48v-1.64Zm18.18 1.87c-.73 0-1.42-.12-2.07-.37a4.04 4.04 0 0 1-1.7-1.24 6.7 6.7 0 0 1-1.15-2.37c-.28-1-.43-2.24-.43-3.72v-.43c0-1.38.15-2.54.43-3.47.29-.92.67-1.66 1.16-2.22a4.1 4.1 0 0 1 1.69-1.22 5.94 5.94 0 0 1 4.12 0 4.1 4.1 0 0 1 1.72 1.22c.48.56.86 1.3 1.15 2.22.29.93.43 2.09.43 3.47v.43c0 1.48-.14 2.72-.43 3.72a6.74 6.74 0 0 1-1.15 2.37c-.49.59-1.06 1-1.72 1.24-.64.25-1.32.37-2.05.37Zm0-1.76c.44 0 .86-.08 1.26-.23a2.4 2.4 0 0 0 1.07-.9 4.9 4.9 0 0 0 .73-1.82c.19-.77.28-1.77.28-3v-.42c0-1.11-.1-2.03-.28-2.74a4.53 4.53 0 0 0-.73-1.69c-.3-.41-.65-.7-1.07-.85a3.48 3.48 0 0 0-2.55 0c-.4.15-.75.44-1.06.85-.3.42-.54.98-.73 1.7-.17.7-.26 1.62-.26 2.73v.43c0 1.22.09 2.22.26 3 .19.76.43 1.37.73 1.8.31.44.67.74 1.07.9.4.17.83.24 1.28.24Zm7.49-.11 5.99-5.2a10.64 10.64 0 0 0 1.81-1.92c.18-.28.3-.56.35-.83.07-.27.1-.56.1-.88 0-.84-.24-1.53-.74-2.07a2.62 2.62 0 0 0-2.06-.84c-1.04 0-1.83.29-2.4.86-.55.56-.82 1.35-.82 2.37h-2.02c0-.72.13-1.4.37-2a4.65 4.65 0 0 1 2.74-2.64 5.7 5.7 0 0 1 2.13-.38c.76 0 1.44.12 2.04.36a4.12 4.12 0 0 1 2.46 2.46 5.32 5.32 0 0 1 .08 3.32 7.07 7.07 0 0 1-1.66 2.43c-.4.37-.82.76-1.29 1.16l-4.47 3.7h7.87v1.75H128.1v-1.64Zm17.65 1.87c-.82 0-1.54-.11-2.18-.32a5.03 5.03 0 0 1-1.6-.92 3.83 3.83 0 0 1-1.36-3.04h2.02c0 .73.24 1.32.74 1.8.5.45 1.3.68 2.38.68 1.08 0 1.87-.23 2.37-.7.5-.49.75-1.12.75-1.89 0-.8-.26-1.44-.77-1.92-.5-.5-1.28-.75-2.35-.75h-1.6V95.8h1.6c1.02 0 1.76-.22 2.22-.64.46-.45.69-1.05.69-1.82 0-.74-.22-1.32-.67-1.73-.44-.43-1.19-.65-2.24-.65-1.02 0-1.76.22-2.23.67a2.1 2.1 0 0 0-.68 1.6h-2.01a3.71 3.71 0 0 1 1.28-2.87c.43-.37.94-.66 1.54-.87a6.35 6.35 0 0 1 2.1-.32c.78 0 1.48.1 2.1.32.6.21 1.12.5 1.53.85a3.5 3.5 0 0 1 1.29 2.78 3.5 3.5 0 0 1-.69 2.19c-.44.58-1.07 1-1.88 1.24.86.27 1.53.7 2.03 1.32.5.62.75 1.46.75 2.53a3.92 3.92 0 0 1-1.34 2.95 5.2 5.2 0 0 1-1.61.9c-.64.21-1.37.32-2.18.32Zm18.6 0c-.9 0-1.68-.11-2.35-.32a4.59 4.59 0 0 1-3.32-3.85h2.02a2.64 2.64 0 0 0 1.05 1.69c.3.21.66.38 1.08.5.43.12.94.18 1.52.18 1.2 0 2.1-.23 2.72-.68.63-.46.94-1.02.94-1.7 0-.4-.07-.76-.21-1.04a1.8 1.8 0 0 0-.69-.75c-.31-.21-.73-.4-1.26-.58-.51-.17-1.15-.34-1.9-.51a19.3 19.3 0 0 1-2.18-.6c-.6-.23-1.1-.5-1.5-.83a3.39 3.39 0 0 1-.88-1.22 4.77 4.77 0 0 1-.28-1.74c0-.55.13-1.07.37-1.54.24-.48.58-.9 1.02-1.26.46-.35 1-.63 1.65-.83a7.08 7.08 0 0 1 2.2-.32c.8 0 1.5.1 2.1.32.6.2 1.1.48 1.52.83.43.36.76.78 1 1.26.25.47.42.99.52 1.54h-2.01c-.07-.3-.18-.57-.32-.83a2.66 2.66 0 0 0-1.52-1.16 4.25 4.25 0 0 0-1.29-.17c-1.02 0-1.82.22-2.4.65-.55.4-.83.92-.83 1.51 0 .39.07.72.22 1 .14.28.36.52.66.74.3.2.68.37 1.13.53.48.14 1.03.29 1.67.43.93.2 1.72.43 2.38.68.67.25 1.2.55 1.62.9.43.36.74.78.92 1.26.2.49.3 1.07.3 1.74a3.64 3.64 0 0 1-1.5 2.97c-.48.37-1.07.66-1.77.88-.7.21-1.5.32-2.4.32Zm8.56-11.55h1.75v2.14a4.1 4.1 0 0 1 1.6-1.74c.7-.41 1.5-.62 2.42-.62a4.4 4.4 0 0 1 3.42 1.41c.86.93 1.28 2.31 1.28 4.15v.43c0 .97-.11 1.82-.34 2.55a5.16 5.16 0 0 1-.96 1.8c-.41.46-.91.82-1.5 1.06-.57.25-1.2.37-1.9.37-.97 0-1.78-.22-2.44-.64a4.23 4.23 0 0 1-1.45-1.6v6.3h-1.89V93.02Zm5.34 9.88a2.92 2.92 0 0 0 2.31-1.05c.3-.34.53-.77.69-1.28.16-.52.25-1.1.25-1.78v-.43c0-.6-.09-1.16-.25-1.64a3.3 3.3 0 0 0-1.72-2 3.76 3.76 0 0 0-2.7 0c-.42.16-.78.4-1.08.7a3.2 3.2 0 0 0-.96 2.31v1.7c0 .52.08.99.25 1.41a3.19 3.19 0 0 0 1.8 1.8c.43.17.9.26 1.41.26Zm7.81-9.88h1.75v2.14a3.7 3.7 0 0 1 1.2-1.67 3.22 3.22 0 0 1 2.08-.69 4.33 4.33 0 0 1 1.17.15v1.76a2.72 2.72 0 0 0-.55-.15 4.72 4.72 0 0 0-.73-.05 3 3 0 0 0-1.2.24 2.9 2.9 0 0 0-1.6 1.67c-.16.4-.24.83-.24 1.3v6.63h-1.88V93.02Zm8.55 0h1.88v11.33h-1.88V93.02Zm.94-1.5a1.25 1.25 0 0 1-1.28-1.28 1.24 1.24 0 0 1 1.28-1.29 1.25 1.25 0 0 1 1.28 1.29 1.25 1.25 0 0 1-1.28 1.28Zm4.56 1.5h1.76v2.14a3.64 3.64 0 0 1 1.35-1.65 4.42 4.42 0 0 1 2.53-.7c1.42 0 2.47.38 3.16 1.15.7.75 1.05 1.87 1.05 3.33v7.06h-1.88v-6.63c0-1.05-.22-1.85-.67-2.4-.44-.53-1.18-.8-2.22-.8-.56 0-1.04.09-1.46.27a2.85 2.85 0 0 0-1.56 1.76 4.2 4.2 0 0 0-.17 1.17v6.63h-1.88V93.02Zm17.66 15.82a7.6 7.6 0 0 1-2.12-.25 4.3 4.3 0 0 1-1.45-.67 2.96 2.96 0 0 1-.86-1.02c-.2-.39-.33-.8-.38-1.26h1.97c.07.22.17.43.3.62.12.18.3.34.5.47.22.13.5.22.82.3a6 6 0 0 0 1.22.1c1.16 0 2-.27 2.55-.83.54-.56.8-1.35.8-2.38v-1.81a3.39 3.39 0 0 1-1.51 1.69c-.67.37-1.46.55-2.38.55-.7 0-1.34-.12-1.92-.36a4.05 4.05 0 0 1-1.48-1.07 4.94 4.94 0 0 1-.96-1.75 8.16 8.16 0 0 1-.34-2.49v-.42c0-.87.11-1.64.34-2.31.24-.69.57-1.26.99-1.71.41-.47.9-.83 1.47-1.07a4.92 4.92 0 0 1 1.9-.37c.97 0 1.82.22 2.53.67a3.5 3.5 0 0 1 1.5 1.69v-2.14H223v10.9a4.8 4.8 0 0 1-1.35 3.62c-.9.87-2.2 1.3-3.89 1.3Zm-.1-6.16c.5 0 .98-.07 1.4-.23a3.2 3.2 0 0 0 2.06-3.12v-1.71a3.12 3.12 0 0 0-2.05-2.89 3.77 3.77 0 0 0-2.7 0c-.4.17-.75.42-1.05.75-.28.32-.51.72-.68 1.2-.16.45-.24.98-.24 1.58v.42c0 .65.08 1.22.24 1.72.17.5.4.92.68 1.26a2.92 2.92 0 0 0 2.33 1.02Z"/>
    <path fill="url(#b)" d="M81.66 84.16s1.84-2.52 3.08-5.33a31.4 31.4 0 0 0 2.44-7.82l.1-.59v-.2c.07-1.02.02-2.08-.11-3.13-1.03-7.92-11.1-14.23-13.19-15.45-.25-.15-.5-.27-.77-.39-1.26-.52-5.11-1.98-6.15-.81-.7.58-1.1 4.44-1.1 4.44l-.14 1.24-.1 1.18-.1 1.35-.04.71-.03.71-.08 1.43-.02.8-.03.65-.05 1.5-.01.42-.04 1.36-.02 1.36-.02 1.26c1.14.65 8.02 4.9 16.38 15.31Z"/>
    <path fill="url(#c)" d="M67.06 50.44 46.73 65.86s-3.92 2.5-4.35 6.76c-.43 4.26-.46 6.13-.26 8.4.17 2.28.63 10.2 4.55 13.91l.16.13c.57.45 1.67.95 2.96 1.44a22.56 22.56 0 0 0 15.74-.02c.01 0 .1-.01.1-.04v-.01c0-.22-.6-17.46-.29-30.82l.03-.9c.1-3.43.25-6.57.5-9.05.28-2.68.66-4.58 1.2-5.22Z"/>
    <path fill="url(#d)" d="m81.3 107.82.53-.5c.85-.84 3.5-3.97 4.04-11.27.67-8.75 1.42-25.82 1.42-25.82s-3.47 14.9-14.14 22.3c-13.04 9.01-23.56 4.15-26.32 2.54l.36.27.32.21 4.85 3.08c6.47 3.93 16.89 9.99 20.9 11.32 3 .98 5.9-.46 8.04-2.13Z"/>
  </g>
  <defs>
    <linearGradient id="b" x1="91.55" x2="66.42" y1="76.28" y2="47.5" gradientUnits="userSpaceOnUse">
      <stop stop-color="#DDF000"/>
      <stop offset="1" stop-color="#4F7802"/>
    </linearGradient>
    <linearGradient id="c" x1="49.43" x2="58.99" y1="55.76" y2="97.05" gradientUnits="userSpaceOnUse">
      <stop stop-color="#DDF000"/>
      <stop offset="1" stop-color="#7DBE04"/>
    </linearGradient>
    <linearGradient id="d" x1="57.57" x2="81.05" y1="86.9" y2="101.18" gradientUnits="userSpaceOnUse">
      <stop stop-color="#DDF000"/>
      <stop offset="1" stop-color="#7EC200"/>
    </linearGradient>
    <clipPath id="a">
      <path fill="#fff" d="M42 50h181v60.3H42z"/>
    </clipPath>
  </defs>
</svg>
