<svg xmlns="http://www.w3.org/2000/svg" width="267" height="160" fill="none">
  <path fill="#fff" d="M142.13 46.5c-30.8-10.47-50.08 19.33-50.08 19.33 12.31 2.53 32.06-2.4 32.06-2.4 6.36-8.74 18.1-16.97 18.1-16.97l-.08.05Zm39.6 6.07c.07 4.55.1 9.07.17 13.58.06 4.5.1 8.98.18 13.4h10.95v-4.63c-1.85-.1-3.8-.2-5.82-.35 0-1.93 0-3.87-.07-5.8 1.71.2 3.35.4 4.93.57v-4.66l-4.92-.85v-5.04l5.63 1.2v-4.56l-10.86-3-.19.14Zm22.09 13.74c0-1.5 0-2.55-.08-3.44a7.64 7.64 0 0 0-.48-2.27 5.52 5.52 0 0 0-3.79-3.6c-1.85-.52-3.76-.24-4.62 2.3-.28.98-.43 1.99-.45 3v6.5c0 1.63 0 3.26.11 4.86.02.9.15 1.79.37 2.65a4.8 4.8 0 0 0 4.48 3.71c.54.02 1.08-.08 1.58-.27a3.38 3.38 0 0 0 2.07-1.8 7.6 7.6 0 0 0 .78-3.55v-3.02l-3.4-.42v3.13c0 1.47-.45 2-.92 1.97a.97.97 0 0 1-.65-.3 3 3 0 0 1-.41-2.08V63.37c0-1.33.07-1.9.44-2.2a.77.77 0 0 1 .62-.15 1.46 1.46 0 0 1 .86 1.2c.06.47.08.95.07 1.43v2.18l3.4.62.01-.14Zm-38.84-18.5c0 2 .07 4.04.1 6 1.71.38 3.39.79 5.03 1.12l.2 12.32c.06 4.08.15 8.14.2 12.22h6.42c-.08-3.82-.11-7.66-.18-11.51-.08-3.85-.1-7.72-.17-11.6l4.04.92c0-1.73 0-3.47-.07-5.2-4.72-1.3-9.92-2.76-15.7-4.32l.13.04Zm40.3 11.15v20.58h3.06v-8.4c.62.07 1.2.14 1.85.24v8.23h2.66v-18.5c-.85-.25-1.78-.49-2.66-.75v7.1c-.62-.09-1.21-.2-1.89-.33v-7.36l-3.07-.84.06.03ZM154.9 80.19v5.32c1.3 0 2.57 0 3.84-.07v22.59l5.3-.5V85.4l3.62-.07v-5.07h-12.7l-.06-.07Zm13.72.07v26.78l4.83-.48v-11.6c1.5-.12 2.18.08 2.41 1.04.17.69.24 1.4.2 2.1v5.34c-.03.96.07 1.93.31 2.86 1.58-.17 3.11-.3 4.62-.43a8.22 8.22 0 0 1-.37-2.9v-5.24c0-1.74-.11-3.6-1.2-4.6-.35-.27-.74-.5-1.14-.67a4.6 4.6 0 0 0 1.58-1.61c.66-1.29.95-2.74.82-4.18 0-3.4-.82-5.61-3.49-6.23-.47-.1-.95-.15-1.44-.13h-7.04l-.09-.05Zm4.83 4.4c1.5 0 2.11 0 2.5.9.2.65.3 1.32.26 1.99 0 1.06 0 2.24-.82 2.78-.61.3-1.3.44-1.98.41-.03-2.04-.03-4.04 0-6.08h.04Zm12.34-4.36c-.61 4.15-1.2 8.33-1.88 12.55-.67 4.23-1.2 8.48-1.92 12.77 1.51-.14 2.98-.32 4.46-.45.13-1.52.3-3.02.44-4.56l3.32-.27c.17 1.46.3 2.96.47 4.42l4.25-.4c-.58-4-1.2-7.96-1.78-12-.58-4.05-1.21-8.08-1.82-12.12h-5.53v.06Zm1.61 15.93c.2-1.98.41-3.95.65-5.93.24-1.98.41-4.12.58-6.2.15 1.7.31 3.47.45 5.21.1 1.13.24 2.25.34 3.38.1 1.13.24 2.24.34 3.33-.78 0-1.57.14-2.4.17l.04.04Zm9.04-15.9v23.95l4-.4V80.3h-3.99l-.01.03Zm6.43 0v23.24l3.62-.34V92.95c0-1.8-.14-3.6-.24-5.4.3 1.84.62 3.7.95 5.55.32 1.63.66 3.19 1 4.8l1.02 5.11c1.3-.14 2.57-.24 3.8-.38V80.37h-3.52v7.65c0 1.2.07 2.52.1 3.74.04 1.23 0 2.49.14 3.71-.17-1.2-.38-2.28-.54-3.43-.17-1.15-.38-2.28-.58-3.43-.25-1.4-.56-2.8-.83-4.16-.26-1.35-.59-2.76-.89-4.12h-4.03ZM86.16 81.7l2.65-7.66h-3.95l-3.11 7.5 3.52.09-2.5-.61 2.78-6.45 2.18.07-1.57 7.06Zm-.4-7.7h1.3-1.3Zm12.34 7.98 9-7.2 5.03-.24-7.24 7.14-6.03.37 6.29.4 9.5-8.47h-8.44l-8.11 7.96v.04Zm1.71 21.6c25.8-1.09 28.82-11.3 52.96-13.16-27.76 1.02-26.48 10.27-52.96 13.13v.03Zm-19.7-13.6a4.58 4.58 0 0 0 1.06 2.75s19.6 1.9 31.99-2.22a119.83 119.83 0 0 1 40.26-9.83c-1.64-.28-16.15-2.08-27.64 2.4 0 0-17.04 7.05-26.72 7.38 0 0-16.83.15-19-.54l.05.05Zm48.6-28.82c17.46-14.81 34.92-9.1 34.92-9.1v-1.5c-21.09-5.17-34.88 10.55-34.88 10.55l-.03.05ZM148.57 105c0-.57-.35-1.05-.76-1.05-.41 0-.75.48-.75 1.05 0 .58.34 1.06.75 1.06.4 0 .76-.48.76-1.06Zm-1.47 4.2c-1.65 0-2.99-1.88-2.99-4.2 0-2.31 1.34-4.19 2.98-4.19h.1c-.26-.1-.54-.16-.82-.17-1.71 0-3.08 1.95-3.08 4.33 0 2.37 1.37 4.32 3.08 4.32.28-.01.56-.07.82-.17h-.1v.07Zm-44.41-56.74c19.12-16.58 50.84-10.38 50.84-10.38L214 60.56v43.22L65.64 119.77l67.25-11.5.57-3.03c4.82-1.13 8.65-5.48 8.65-5.48l15.42-.27v-1.63h-16.5a20.6 20.6 0 0 1-10.29 6.53l-1.06 2.86-40.1.2-36.98 2.28 37.05-3.5.11-2.08 5.3-.44c-13.07 0-16.22-10.96-16.22-10.96 3.15 6.33 11.5 4.8 11.5 4.8-15.44 0-10.86-13.43-10.86-13.43 5.27-16.17 23.27-31.7 23.27-31.7l-.06.04Z"/>
</svg>
